<svg width="683" height="311" viewBox="0 0 683 311" fill="none" xmlns="http://www.w3.org/2000/svg">
<g clip-path="url(#clip0_14_171)">
<mask id="mask0_14_171" style="mask-type:luminance" maskUnits="userSpaceOnUse" x="271" y="0" width="209" height="335">
<rect x="480" width="335" height="209" transform="rotate(90 480 0)" fill="white"/>
</mask>
<g mask="url(#mask0_14_171)">
<rect x="480" width="335" height="185" transform="rotate(90 480 0)" fill="#FC9770"/>
<path d="M317 282L390 282C430.316 282 463 314.683 463 355L390 355C349.684 355 317 322.317 317 282Z" fill="#FB8355"/>
<path d="M463 209L390 209C349.684 209 317 241.684 317 282L390 282C430.316 282 463 249.316 463 209Z" fill="#FC8B5F"/>
<path d="M172 209L244.133 209C284.376 209 317 241.684 317 282L244.867 282C204.622 282 172 249.316 172 209Z" fill="#FB8355"/>
<path d="M325.103 166C339.958 166 352 178.042 352 192.897C352 207.751 339.958 219.793 325.103 219.793C310.249 219.793 298.207 207.751 298.207 192.897C298.207 178.042 310.249 166 325.103 166Z" fill="#FC8B5F"/>
<path d="M599 127L471.5 127C401.084 127 344 69.6925 344 -1L471.5 -0.999983C541.916 -0.999974 599 56.3076 599 127Z" fill="#FC8B5F"/>
<path d="M471 63L407.821 63C372.574 63 344 34.3462 344 -1L407.179 -0.999992C442.427 -0.999987 471 27.6538 471 63Z" fill="#FB8355"/>
</g>
<path d="M331.784 25.768L332.368 24.976L333.664 25.92L334.152 24.4L335.088 24.696L334.6 26.224L336.2 26.224L336.2 27.216L334.6 27.216L335.088 28.736L334.152 29.04L333.664 27.512L332.368 28.456L331.784 27.656L333.088 26.72L331.784 25.768ZM331.784 31.4555L332.368 30.6635L333.664 31.6075L334.152 30.0875L335.088 30.3835L334.6 31.9115L336.2 31.9115L336.2 32.9035L334.6 32.9035L335.088 34.4235L334.152 34.7275L333.664 33.1995L332.368 34.1435L331.784 33.3435L333.088 32.4075L331.784 31.4555ZM331.784 37.143L332.368 36.351L333.664 37.295L334.152 35.775L335.088 36.071L334.6 37.599L336.2 37.599L336.2 38.591L334.6 38.591L335.088 40.111L334.152 40.415L333.664 38.887L332.368 39.831L331.784 39.031L333.088 38.095L331.784 37.143ZM331.784 42.8305L332.368 42.0385L333.664 42.9825L334.152 41.4625L335.088 41.7585L334.6 43.2865L336.2 43.2865L336.2 44.2785L334.6 44.2785L335.088 45.7985L334.152 46.1025L333.664 44.5745L332.368 45.5185L331.784 44.7185L333.088 43.7825L331.784 42.8305ZM324.792 54.8737C324.792 54.1804 324.96 53.5511 325.296 52.9857C325.632 52.4204 326.08 51.9724 326.64 51.6417C327.205 51.3164 327.827 51.1537 328.504 51.1537L328.504 52.4977C328.072 52.4977 327.675 52.6044 327.312 52.8177C326.955 53.0311 326.669 53.3164 326.456 53.6737C326.243 54.0364 326.136 54.4364 326.136 54.8737C326.136 55.3057 326.243 55.7004 326.456 56.0577C326.669 56.4151 326.955 56.7004 327.312 56.9137C327.675 57.1271 328.072 57.2337 328.504 57.2337C328.936 57.2337 329.333 57.1324 329.696 56.9297C330.059 56.7324 330.347 56.4417 330.56 56.0577C330.779 55.6737 330.888 55.2071 330.888 54.6577L330.888 51.8977L336.2 52.9857L336.2 58.2978L334.856 58.2978L334.856 54.0737L332.232 53.5537L332.224 54.7137C332.208 55.4764 332.037 56.1457 331.712 56.7217C331.392 57.3031 330.955 57.7564 330.4 58.0817C329.851 58.4124 329.219 58.5777 328.504 58.5777C327.997 58.5777 327.517 58.4817 327.064 58.2897C326.616 58.0977 326.221 57.8311 325.88 57.4897C325.539 57.1484 325.272 56.7537 325.08 56.3057C324.888 55.8631 324.792 55.3857 324.792 54.8737ZM325 61.4272L334.856 61.4272L334.856 60.1712L336.2 60.5472L336.2 62.7712L325 62.7712L325 61.4272ZM324.792 68.3269C324.792 67.6175 324.968 66.9695 325.32 66.3829C325.672 65.7962 326.141 65.3269 326.728 64.9749C327.32 64.6229 327.973 64.4469 328.688 64.4469C329.088 64.4469 329.437 64.4922 329.736 64.5829C330.035 64.6789 330.357 64.8202 330.704 65.0069L336.2 68.1749L336.2 69.7349L332.272 67.4709C332.416 67.9295 332.467 68.3855 332.424 68.8389C332.381 69.2922 332.259 69.7215 332.056 70.1269C331.853 70.5375 331.587 70.9002 331.256 71.2149C330.925 71.5295 330.541 71.7775 330.104 71.9589C329.672 72.1402 329.2 72.2309 328.688 72.2309C328.149 72.2309 327.645 72.1269 327.176 71.9189C326.707 71.7162 326.293 71.4362 325.936 71.0789C325.579 70.7269 325.299 70.3135 325.096 69.8389C324.893 69.3642 324.792 68.8602 324.792 68.3269ZM326.136 68.3269C326.136 68.8175 326.256 69.2549 326.496 69.6389C326.736 70.0282 327.051 70.3322 327.44 70.5509C327.829 70.7749 328.245 70.8869 328.688 70.8869C329.152 70.8869 329.576 70.7722 329.96 70.5429C330.344 70.3189 330.651 70.0122 330.88 69.6229C331.115 69.2389 331.232 68.8122 331.232 68.3429C331.232 67.8522 331.112 67.4149 330.872 67.0309C330.632 66.6469 330.32 66.3429 329.936 66.1189C329.552 65.9002 329.136 65.7909 328.688 65.7909C328.203 65.7909 327.768 65.9082 327.384 66.1429C327 66.3775 326.696 66.6869 326.472 67.0709C326.248 67.4602 326.136 67.8789 326.136 68.3269ZM324.792 76.9511C324.792 76.2845 324.944 75.6765 325.248 75.1271C325.552 74.5831 325.957 74.1485 326.464 73.8231C326.976 73.5031 327.541 73.3431 328.16 73.3431C328.736 73.3431 329.264 73.4951 329.744 73.7991C330.229 74.1031 330.613 74.5005 330.896 74.9911C331.152 74.5911 331.491 74.2605 331.912 73.9991C332.339 73.7431 332.8 73.6151 333.296 73.6151C333.872 73.6151 334.395 73.7645 334.864 74.0631C335.333 74.3671 335.707 74.7698 335.984 75.2711C336.267 75.7778 336.408 76.3378 336.408 76.9511C336.408 77.5645 336.267 78.1218 335.984 78.6231C335.707 79.1298 335.333 79.5325 334.864 79.8311C334.395 80.1351 333.872 80.2871 333.296 80.2871C332.8 80.2871 332.339 80.1591 331.912 79.9031C331.491 79.6471 331.152 79.3138 330.896 78.9031C330.613 79.4098 330.229 79.8125 329.744 80.1111C329.264 80.4151 328.736 80.5671 328.16 80.5671C327.547 80.5671 326.984 80.4045 326.472 80.0791C325.96 79.7538 325.552 79.3165 325.248 78.7671C324.944 78.2231 324.792 77.6178 324.792 76.9511ZM326.136 76.9511C326.136 77.3565 326.227 77.7218 326.408 78.0471C326.589 78.3778 326.832 78.6418 327.136 78.8391C327.445 79.0365 327.787 79.1351 328.16 79.1351C328.539 79.1351 328.88 79.0365 329.184 78.8391C329.488 78.6418 329.731 78.3778 329.912 78.0471C330.093 77.7218 330.184 77.3565 330.184 76.9511C330.184 76.5511 330.093 76.1858 329.912 75.8551C329.731 75.5245 329.488 75.2605 329.184 75.0631C328.88 74.8658 328.539 74.7671 328.16 74.7671C327.787 74.7671 327.445 74.8658 327.136 75.0631C326.832 75.2605 326.589 75.5245 326.408 75.8551C326.227 76.1858 326.136 76.5511 326.136 76.9511ZM331.528 76.9511C331.528 77.3031 331.608 77.6231 331.768 77.9111C331.928 78.1991 332.141 78.4285 332.408 78.5991C332.675 78.7751 332.971 78.8631 333.296 78.8631C333.627 78.8631 333.923 78.7751 334.184 78.5991C334.451 78.4285 334.664 78.1991 334.824 77.9111C334.984 77.6231 335.064 77.3031 335.064 76.9511C335.064 76.5991 334.984 76.2791 334.824 75.9911C334.664 75.7031 334.451 75.4711 334.184 75.2951C333.923 75.1245 333.627 75.0391 333.296 75.0391C332.971 75.0391 332.675 75.1245 332.408 75.2951C332.141 75.4711 331.928 75.7031 331.768 75.9911C331.608 76.2791 331.528 76.5991 331.528 76.9511Z" fill="white"/>
<path d="M362.2 28.712L362.2 30.336L351 34.408L351 32.984L353.288 32.152L353.288 26.896L351 26.072L351 24.64L362.2 28.712ZM354.632 27.392L354.632 31.656L360.48 29.52L354.632 27.392ZM351 35.8304L363 35.8304L363 37.1664L351 37.1664L351 35.8304ZM351 43.2762L351 41.5562L359.016 38.6362L359.016 40.0682L352.56 42.4122L359.016 44.7562L359.016 46.1883L351 43.2762ZM359 47.4912L359 48.8352L351 48.8352L351 47.4912L359 47.4912ZM360.464 48.1712C360.464 47.9632 360.533 47.7872 360.672 47.6432C360.811 47.4992 360.984 47.4272 361.192 47.4272C361.4 47.4272 361.573 47.4992 361.712 47.6432C361.851 47.7872 361.92 47.9632 361.92 48.1712C361.92 48.3792 361.851 48.5552 361.712 48.6992C361.573 48.8432 361.4 48.9152 361.192 48.9152C360.984 48.9152 360.811 48.8432 360.672 48.6992C360.533 48.5552 360.464 48.3792 360.464 48.1712ZM355.256 58.3471L351 58.3471L351 57.0031L355.224 57.0031C355.72 57.0031 356.171 56.8991 356.576 56.6911C356.987 56.4831 357.312 56.2005 357.552 55.8431C357.797 55.4858 357.92 55.0831 357.92 54.6351C357.92 54.1925 357.797 53.7978 357.552 53.4511C357.312 53.1098 356.987 52.8405 356.576 52.6431C356.171 52.4458 355.72 52.3471 355.224 52.3471L351 52.3471L351 51.0031L359 51.0031L359 52.3471L357.768 52.3471C358.221 52.6351 358.576 52.9898 358.832 53.4111C359.093 53.8378 359.224 54.3125 359.224 54.8351C359.224 55.5285 359.043 56.1365 358.68 56.6591C358.317 57.1871 357.835 57.5978 357.232 57.8911C356.635 58.1898 355.976 58.3418 355.256 58.3471ZM351 63.9444L362.2 63.9444L362.2 70.8164L360.856 70.8164L360.856 65.2884L357.672 65.2884L357.672 69.8164L356.328 69.8164L356.328 65.2884L352.344 65.2884L352.344 70.8164L351 70.8164L351 63.9444ZM351 72.7054L363 72.7054L363 74.0414L351 74.0414L351 72.7054ZM359 76.1006L359 77.4446L351 77.4446L351 76.1006L359 76.1006ZM360.464 76.7806C360.464 76.5726 360.533 76.3966 360.672 76.2526C360.811 76.1086 360.984 76.0366 361.192 76.0366C361.4 76.0366 361.573 76.1086 361.712 76.2526C361.851 76.3966 361.92 76.5726 361.92 76.7806C361.92 76.9886 361.851 77.1646 361.712 77.3086C361.573 77.4526 361.4 77.5246 361.192 77.5246C360.984 77.5246 360.811 77.4526 360.672 77.3086C360.533 77.1646 360.464 76.9886 360.464 76.7806ZM359 86.3238L359 87.6677L351 87.6677L351 86.3157L352.352 86.2677C351.888 86.0171 351.512 85.6704 351.224 85.2277C350.936 84.7904 350.792 84.2704 350.792 83.6677C350.792 83.0757 350.901 82.5237 351.12 82.0117C351.344 81.4997 351.651 81.0464 352.04 80.6517C352.435 80.2624 352.888 79.9584 353.4 79.7397C353.912 79.5211 354.464 79.4117 355.056 79.4117C355.627 79.4117 356.165 79.5184 356.672 79.7317C357.179 79.9451 357.621 80.2411 358 80.6197C358.384 81.0037 358.683 81.4464 358.896 81.9477C359.115 82.4491 359.224 82.9851 359.224 83.5557C359.224 84.1904 359.075 84.7451 358.776 85.2197C358.483 85.6997 358.101 86.0837 357.632 86.3717L359 86.3238ZM352.096 83.6997C352.096 84.2331 352.229 84.6917 352.496 85.0757C352.763 85.4597 353.12 85.7504 353.568 85.9477C354.016 86.1504 354.512 86.2411 355.056 86.2197C355.589 86.1984 356.072 86.0731 356.504 85.8437C356.936 85.6144 357.277 85.3051 357.528 84.9158C357.784 84.5264 357.912 84.0731 357.912 83.5557C357.912 83.0277 357.779 82.5477 357.512 82.1157C357.245 81.6837 356.888 81.3451 356.44 81.0997C355.992 80.8597 355.493 80.7504 354.944 80.7717C354.416 80.7984 353.936 80.9477 353.504 81.2197C353.072 81.4917 352.728 81.8437 352.472 82.2757C352.221 82.7131 352.096 83.1877 352.096 83.6997ZM355.256 96.769L351 96.769L351 95.425L355.224 95.425C355.72 95.425 356.171 95.321 356.576 95.113C356.987 94.905 357.312 94.6223 357.552 94.265C357.797 93.9077 357.92 93.505 357.92 93.057C357.92 92.6143 357.797 92.2197 357.552 91.873C357.312 91.5317 356.987 91.2623 356.576 91.065C356.171 90.8677 355.72 90.769 355.224 90.769L351 90.769L351 89.425L359 89.425L359 90.769L357.768 90.769C358.221 91.057 358.576 91.4117 358.832 91.833C359.093 92.2597 359.224 92.7343 359.224 93.257C359.224 93.9503 359.043 94.5583 358.68 95.081C358.317 95.609 357.835 96.0197 357.232 96.313C356.635 96.6117 355.976 96.7637 355.256 96.769Z" fill="white"/>
<path d="M338.476 257.224L323.484 250.94L323.484 246.84L335.45 243.748C336.186 243.56 336.456 243.398 336.766 242.826C337.272 241.894 337.746 240.354 338.042 239L338.476 239.092L338.476 245.692C338.476 246.123 338.323 246.541 338.042 246.868C337.762 247.196 337.374 247.413 336.948 247.48L328.272 249.114L338.476 253.15L338.476 257.224ZM328.378 273.29C332.336 273.306 332.554 267.818 334.322 267.856C334.86 267.868 335.432 268.38 335.578 269.5C335.703 270.813 335.47 272.134 334.906 273.326L338.086 274.006C338.522 272.846 338.748 271.617 338.752 270.378C338.752 266.544 336.712 263.846 333.794 263.822C331.636 263.798 330.434 265.748 329.714 267.218C328.98 268.73 328.508 269.238 327.852 269.23C326.844 269.22 326.402 268.026 326.384 266.91C326.354 264.96 326.91 263.83 327.33 262.926L324.046 262.224C323.63 263.13 323.266 264.802 323.25 266.536C323.25 270.61 325.262 273.276 328.378 273.29ZM323.484 283.412L323.484 287L338.476 283.87L338.476 280.558C338.479 280.204 338.376 279.857 338.18 279.563C337.984 279.268 337.704 279.039 337.376 278.906L323.484 273.088L323.484 277.16L325.724 277.97L325.724 282.946L323.484 283.412ZM328.796 279.086L334.426 281.126L328.796 282.302L328.796 279.086ZM338.476 262.766L323.484 259.56L323.484 255.68L338.476 258.89L338.476 262.766Z" fill="white"/>
<rect x="427.553" y="24.4466" width="45.9979" height="34.8334" rx="6.69872" transform="rotate(90 427.553 24.4466)" fill="url(#paint0_linear_14_171)" stroke="#666666" stroke-width="0.893163"/>
<path fill-rule="evenodd" clip-rule="evenodd" d="M420.157 54.0363C423.357 52.4338 425.87 49.9163 426.852 48.2602C426.916 48.1507 427.02 48.0709 427.142 48.0382C427.264 48.0056 427.395 48.0228 427.504 48.0862C427.614 48.1495 427.693 48.2537 427.726 48.376C427.759 48.4982 427.741 48.6284 427.678 48.7379C426.406 50.9072 423.487 53.4292 420.603 54.8754C420.548 54.9103 420.486 54.9325 420.421 54.9407C420.356 54.9489 420.29 54.9428 420.228 54.9227C420.166 54.9027 420.109 54.8694 420.061 54.8249C420.013 54.7805 419.976 54.7261 419.951 54.6656C419.917 54.6012 419.898 54.5291 419.898 54.4559C419.898 54.3688 419.922 54.2834 419.968 54.2093C420.013 54.1352 420.079 54.0752 420.157 54.0363ZM404.842 39.5292C400.405 39.5604 395.115 43.734 393.406 46.6086C393.377 46.6641 393.337 46.7128 393.288 46.7517C393.238 46.7906 393.182 46.8188 393.121 46.8343C393.061 46.8499 392.997 46.8526 392.936 46.8421C392.874 46.8317 392.815 46.8084 392.763 46.7737C392.693 46.7316 392.635 46.6721 392.594 46.601C392.553 46.5299 392.532 46.4495 392.531 46.3675C392.531 46.284 392.554 46.202 392.598 46.131C394.406 43.0644 399.691 38.8685 404.422 38.6007L404.422 24.4687C404.434 24.3517 404.488 24.2431 404.575 24.1642C404.662 24.0852 404.776 24.0414 404.893 24.0414C405.011 24.0414 405.124 24.0852 405.211 24.1642C405.298 24.2431 405.353 24.3517 405.364 24.4687L405.364 38.69C408.486 39.5807 411.795 39.5807 414.916 38.69L414.916 24.4687C414.916 24.3444 414.966 24.2252 415.054 24.1373C415.142 24.0494 415.261 24 415.385 24C415.509 24 415.629 24.0494 415.716 24.1373C415.804 24.2252 415.854 24.3444 415.854 24.4687L415.854 38.6007C420.603 38.8685 425.87 43.0823 427.678 46.131C427.741 46.2405 427.759 46.3707 427.726 46.4929C427.693 46.6151 427.613 46.7193 427.504 46.7827C427.394 46.846 427.264 46.8633 427.142 46.8306C427.02 46.798 426.916 46.7181 426.852 46.6086C425.165 43.734 419.871 39.5604 415.43 39.5292C411.974 40.5516 408.297 40.5516 404.842 39.5292ZM405.364 70.4221L405.364 56.174C408.486 55.2833 411.795 55.2833 414.916 56.174L414.916 70.4221C414.916 70.5464 414.966 70.6656 415.054 70.7535C415.141 70.8414 415.261 70.8908 415.385 70.8908C415.509 70.8908 415.629 70.8414 415.716 70.7535C415.804 70.6656 415.854 70.5464 415.854 70.4221L415.854 55.8124C415.853 55.7108 415.818 55.6124 415.756 55.5318C415.694 55.4513 415.608 55.3932 415.51 55.3661C412.03 54.3283 408.322 54.3283 404.842 55.3661C400.405 55.3348 395.115 51.1613 393.406 48.2867C393.378 48.2297 393.339 48.1792 393.291 48.1385C393.243 48.0978 393.186 48.0678 393.126 48.0505C393.065 48.0332 393.001 48.029 392.939 48.0381C392.876 48.0473 392.816 48.0696 392.763 48.1036C392.693 48.1458 392.634 48.2052 392.594 48.2764C392.553 48.3475 392.532 48.4279 392.531 48.5098C392.531 48.5934 392.554 48.6754 392.598 48.7464C394.383 51.7951 399.691 56.0088 404.422 56.2767L404.422 70.4221C404.434 70.5391 404.488 70.6476 404.575 70.7266C404.662 70.8056 404.776 70.8493 404.893 70.8493C405.011 70.8493 405.124 70.8056 405.211 70.7266C405.298 70.6476 405.353 70.5391 405.364 70.4221ZM425.122 46.9681C425.214 47.1061 425.263 47.2683 425.263 47.4343C425.263 47.6568 425.175 47.8703 425.018 48.0277C424.86 48.185 424.647 48.2735 424.424 48.2735C424.258 48.2735 424.096 48.2242 423.958 48.132C423.82 48.0398 423.712 47.9088 423.649 47.7554C423.585 47.6021 423.569 47.4333 423.601 47.2706C423.633 47.1078 423.713 46.9583 423.831 46.8409C423.948 46.7235 424.098 46.6436 424.26 46.6112C424.423 46.5789 424.592 46.5955 424.745 46.659C424.899 46.7225 425.03 46.8301 425.122 46.9681Z" fill="#666666"/>
<path d="M413.193 82.5365C413.332 82.4339 413.49 82.3597 413.657 82.3181C413.825 82.2765 413.999 82.2682 414.169 82.2939C414.514 82.3458 414.824 82.5324 415.031 82.8129C415.239 83.0933 415.326 83.4446 415.274 83.7894C415.222 84.1341 415.035 84.4442 414.755 84.6513C414.103 85.1371 413.378 85.5168 412.608 85.7763C411.809 86.046 410.97 86.1828 410.127 86.1812C409.285 86.1821 408.449 86.0453 407.652 85.7763C406.881 85.5168 406.157 85.1371 405.505 84.6513C405.224 84.4442 405.038 84.1341 404.986 83.7894C404.934 83.4446 405.021 83.0933 405.228 82.8129C405.436 82.5324 405.746 82.3457 406.09 82.2939C406.435 82.2421 406.786 82.3293 407.067 82.5365C407.494 82.8574 407.969 83.1091 408.475 83.2821C409.006 83.4661 409.564 83.5617 410.127 83.565C410.686 83.5672 411.242 83.4782 411.772 83.3014C412.284 83.1237 412.763 82.8654 413.193 82.5365ZM415.642 87.0362C413.985 88.0594 412.074 88.5982 410.127 88.5918C408.183 88.6006 406.275 88.0662 404.618 87.049C404.471 86.9583 404.308 86.8974 404.137 86.8697C403.967 86.8421 403.792 86.8483 403.624 86.888C403.456 86.9277 403.298 87.0001 403.158 87.1011C403.018 87.2021 402.899 87.3296 402.808 87.4765C402.717 87.6234 402.657 87.7867 402.629 87.9572C402.601 88.1276 402.607 88.3018 402.647 88.4698C402.687 88.6378 402.759 88.7964 402.86 88.9365C402.961 89.0765 403.089 89.1953 403.236 89.286C405.307 90.5606 407.695 91.2287 410.127 91.2145C412.561 91.2296 414.951 90.5615 417.024 89.286C417.171 89.1953 417.299 89.0765 417.4 88.9365C417.501 88.7964 417.573 88.6378 417.613 88.4698C417.652 88.3018 417.659 88.1276 417.631 87.9572C417.603 87.7867 417.542 87.6234 417.452 87.4765C417.361 87.3296 417.242 87.2021 417.102 87.1011C416.962 87.0001 416.803 86.9277 416.635 86.888C416.467 86.8483 416.293 86.8421 416.123 86.8697C415.952 86.8974 415.789 86.9583 415.642 87.049L415.642 87.0362ZM418.117 91.8252C415.684 93.2455 412.918 93.9932 410.101 93.9915C407.286 93.9924 404.522 93.2447 402.091 91.8252C401.942 91.7378 401.778 91.6806 401.607 91.6569C401.436 91.6332 401.261 91.6435 401.094 91.687C400.927 91.7306 400.77 91.8067 400.633 91.9109C400.495 92.0151 400.379 92.1454 400.292 92.2944C400.204 92.4434 400.147 92.6082 400.123 92.7793C400.1 92.9503 400.11 93.1244 400.153 93.2916C400.197 93.4587 400.273 93.6156 400.377 93.7534C400.482 93.8911 400.612 94.0069 400.761 94.0943C403.591 95.7539 406.814 96.6261 410.095 96.6206C413.387 96.6315 416.623 95.7615 419.467 94.1007C419.769 93.9217 419.987 93.6302 420.074 93.2902C420.16 92.9503 420.109 92.5898 419.93 92.288C419.751 91.9862 419.459 91.768 419.119 91.6812C418.779 91.5944 418.419 91.6462 418.117 91.8252ZM420.624 96.5949C417.418 98.4218 413.791 99.3791 410.101 99.3719C406.413 99.3783 402.788 98.421 399.584 96.5949C399.435 96.5105 399.27 96.4564 399.099 96.4357C398.928 96.4151 398.755 96.4283 398.589 96.4745C398.424 96.5208 398.269 96.5992 398.134 96.7054C397.998 96.8115 397.885 96.9432 397.801 97.0931C397.716 97.2429 397.662 97.4079 397.642 97.5786C397.621 97.7494 397.634 97.9225 397.68 98.0882C397.727 98.2538 397.805 98.4087 397.911 98.544C398.017 98.6794 398.149 98.7925 398.299 98.8769C401.901 100.928 405.975 102.005 410.12 102.001C414.276 102.011 418.362 100.934 421.974 98.8769C422.276 98.7064 422.499 98.4227 422.592 98.0882C422.686 97.7536 422.642 97.3957 422.472 97.0931C422.302 96.7905 422.018 96.568 421.683 96.4745C421.349 96.3811 420.991 96.4244 420.688 96.5949" fill="white"/>
</g>
<rect x="493" y="102" width="190" height="116" rx="8" fill="url(#paint1_linear_14_171)"/>
<path d="M524.248 151.852C523.68 151.844 523.14 151.936 522.628 152.128C522.124 152.312 521.712 152.564 521.392 152.884C521.072 153.204 520.912 153.572 520.912 153.988C520.912 154.524 521.06 154.928 521.356 155.2C521.66 155.472 522.064 155.672 522.568 155.8C523.072 155.92 523.632 156.032 524.248 156.136C525.368 156.312 526.404 156.608 527.356 157.024C528.308 157.44 529.072 157.996 529.648 158.692C530.224 159.38 530.512 160.224 530.512 161.224C530.512 162.136 530.276 162.948 529.804 163.66C529.332 164.364 528.696 164.94 527.896 165.388C527.104 165.836 526.224 166.12 525.256 166.24V168.688H523.252V166.24C522.444 166.144 521.684 165.94 520.972 165.628C520.26 165.316 519.64 164.908 519.112 164.404C518.592 163.9 518.208 163.312 517.96 162.64L520.708 161.632C520.82 161.952 521.048 162.244 521.392 162.508C521.736 162.772 522.156 162.984 522.652 163.144C523.148 163.304 523.68 163.384 524.248 163.384C524.832 163.384 525.376 163.296 525.88 163.12C526.392 162.936 526.804 162.684 527.116 162.364C527.428 162.036 527.584 161.656 527.584 161.224C527.584 160.784 527.42 160.424 527.092 160.144C526.764 159.856 526.344 159.628 525.832 159.46C525.32 159.292 524.792 159.164 524.248 159.076C523.056 158.892 521.988 158.608 521.044 158.224C520.1 157.84 519.352 157.308 518.8 156.628C518.256 155.948 517.984 155.068 517.984 153.988C517.984 153.076 518.22 152.264 518.692 151.552C519.172 150.84 519.808 150.264 520.6 149.824C521.4 149.376 522.284 149.092 523.252 148.972V146.512H525.256V148.972C526.048 149.068 526.8 149.272 527.512 149.584C528.224 149.896 528.844 150.308 529.372 150.82C529.908 151.324 530.3 151.916 530.548 152.596L527.788 153.592C527.676 153.272 527.448 152.98 527.104 152.716C526.76 152.452 526.34 152.244 525.844 152.092C525.348 151.932 524.816 151.852 524.248 151.852ZM532.468 166V163.384C532.988 162.992 533.604 162.508 534.316 161.932C535.028 161.348 535.76 160.72 536.512 160.048C537.264 159.368 537.96 158.688 538.6 158.008C539.24 157.328 539.76 156.68 540.16 156.064C540.568 155.448 540.772 154.92 540.772 154.48C540.772 153.992 540.652 153.548 540.412 153.148C540.172 152.74 539.852 152.416 539.452 152.176C539.06 151.936 538.62 151.816 538.132 151.816C537.644 151.816 537.2 151.936 536.8 152.176C536.4 152.416 536.08 152.74 535.84 153.148C535.6 153.548 535.48 153.992 535.48 154.48H532.552C532.552 153.424 532.808 152.476 533.32 151.636C533.832 150.788 534.508 150.12 535.348 149.632C536.196 149.136 537.124 148.888 538.132 148.888C539.156 148.888 540.088 149.14 540.928 149.644C541.768 150.14 542.44 150.812 542.944 151.66C543.448 152.508 543.7 153.448 543.7 154.48C543.7 155.024 543.6 155.572 543.4 156.124C543.2 156.676 542.92 157.232 542.56 157.792C542.2 158.352 541.776 158.92 541.288 159.496C540.8 160.064 540.26 160.648 539.668 161.248C539.084 161.84 538.468 162.448 537.82 163.072H543.784V166H532.468ZM551.723 166.312C550.651 166.312 549.667 166.044 548.771 165.508C547.875 164.972 547.159 164.256 546.623 163.36C546.087 162.464 545.819 161.472 545.819 160.384C545.819 159.824 545.883 159.304 546.011 158.824C546.147 158.344 546.355 157.86 546.635 157.372L551.339 149.2H554.735L551.579 154.66C552.227 154.612 552.851 154.668 553.451 154.828C554.051 154.988 554.607 155.24 555.119 155.584C555.631 155.928 556.079 156.344 556.463 156.832C556.847 157.32 557.143 157.864 557.351 158.464C557.567 159.064 557.675 159.704 557.675 160.384C557.675 161.2 557.519 161.964 557.207 162.676C556.903 163.388 556.479 164.02 555.935 164.572C555.391 165.116 554.759 165.544 554.039 165.856C553.319 166.16 552.547 166.312 551.723 166.312ZM551.723 163.384C552.307 163.384 552.827 163.244 553.283 162.964C553.739 162.676 554.095 162.304 554.351 161.848C554.615 161.392 554.747 160.908 554.747 160.396C554.747 159.844 554.615 159.34 554.351 158.884C554.087 158.428 553.727 158.064 553.271 157.792C552.823 157.52 552.315 157.384 551.747 157.384C551.163 157.384 550.643 157.528 550.187 157.816C549.739 158.096 549.387 158.464 549.131 158.92C548.875 159.376 548.747 159.868 548.747 160.396C548.747 160.964 548.887 161.472 549.167 161.92C549.447 162.368 549.811 162.724 550.259 162.988C550.715 163.252 551.203 163.384 551.723 163.384ZM559.351 167.344L560.095 163.288H563.023L561.307 167.344H559.351ZM570.989 166.312C569.957 166.312 569.021 166.076 568.181 165.604C567.341 165.132 566.669 164.5 566.165 163.708C565.669 162.908 565.421 162.02 565.421 161.044C565.421 160.276 565.593 159.556 565.937 158.884C566.289 158.204 566.761 157.632 567.353 157.168C566.889 156.744 566.509 156.244 566.213 155.668C565.925 155.084 565.781 154.46 565.781 153.796C565.781 152.892 566.017 152.068 566.489 151.324C566.961 150.58 567.589 149.988 568.373 149.548C569.165 149.108 570.037 148.888 570.989 148.888C571.949 148.888 572.821 149.108 573.605 149.548C574.389 149.988 575.017 150.58 575.489 151.324C575.961 152.068 576.197 152.892 576.197 153.796C576.197 154.46 576.053 155.084 575.765 155.668C575.485 156.244 575.105 156.744 574.625 157.168C575.233 157.632 575.709 158.204 576.053 158.884C576.405 159.556 576.581 160.276 576.581 161.044C576.581 162.012 576.329 162.896 575.825 163.696C575.329 164.488 574.657 165.124 573.809 165.604C572.961 166.076 572.021 166.312 570.989 166.312ZM570.989 163.384C571.453 163.384 571.873 163.28 572.249 163.072C572.625 162.856 572.925 162.572 573.149 162.22C573.373 161.868 573.485 161.476 573.485 161.044C573.485 160.612 573.373 160.22 573.149 159.868C572.925 159.516 572.625 159.236 572.249 159.028C571.873 158.812 571.453 158.704 570.989 158.704C570.533 158.704 570.117 158.812 569.741 159.028C569.365 159.236 569.061 159.516 568.829 159.868C568.605 160.22 568.493 160.612 568.493 161.044C568.493 161.476 568.605 161.868 568.829 162.22C569.061 162.572 569.365 162.856 569.741 163.072C570.117 163.28 570.533 163.384 570.989 163.384ZM570.989 155.776C571.381 155.776 571.737 155.688 572.057 155.512C572.377 155.328 572.629 155.088 572.813 154.792C573.005 154.496 573.101 154.164 573.101 153.796C573.101 153.428 573.005 153.096 572.813 152.8C572.629 152.504 572.377 152.268 572.057 152.092C571.737 151.908 571.381 151.816 570.989 151.816C570.605 151.816 570.253 151.908 569.933 152.092C569.613 152.268 569.357 152.504 569.165 152.8C568.973 153.096 568.877 153.428 568.877 153.796C568.877 154.164 568.973 154.496 569.165 154.792C569.357 155.088 569.613 155.328 569.933 155.512C570.253 155.688 570.605 155.776 570.989 155.776ZM584.799 166.312C583.823 166.312 582.935 166.088 582.135 165.64C581.335 165.184 580.643 164.556 580.059 163.756C579.483 162.956 579.039 162.032 578.727 160.984C578.415 159.928 578.259 158.8 578.259 157.6C578.259 156.4 578.415 155.276 578.727 154.228C579.039 153.172 579.483 152.244 580.059 151.444C580.643 150.644 581.335 150.02 582.135 149.572C582.935 149.116 583.823 148.888 584.799 148.888C585.775 148.888 586.663 149.116 587.463 149.572C588.263 150.02 588.947 150.644 589.515 151.444C590.091 152.244 590.535 153.172 590.847 154.228C591.167 155.276 591.327 156.4 591.327 157.6C591.327 158.8 591.167 159.928 590.847 160.984C590.535 162.032 590.091 162.956 589.515 163.756C588.947 164.556 588.263 165.184 587.463 165.64C586.663 166.088 585.775 166.312 584.799 166.312ZM584.799 163.384C585.655 163.384 586.363 163.112 586.923 162.568C587.483 162.024 587.899 161.312 588.171 160.432C588.443 159.552 588.579 158.608 588.579 157.6C588.579 156.536 588.435 155.568 588.147 154.696C587.859 153.816 587.435 153.116 586.875 152.596C586.315 152.076 585.623 151.816 584.799 151.816C584.151 151.816 583.587 151.976 583.107 152.296C582.635 152.608 582.243 153.036 581.931 153.58C581.619 154.124 581.387 154.744 581.235 155.44C581.083 156.128 581.007 156.848 581.007 157.6C581.007 158.6 581.143 159.544 581.415 160.432C581.695 161.312 582.115 162.024 582.675 162.568C583.243 163.112 583.951 163.384 584.799 163.384ZM598.768 166.312C597.792 166.312 596.904 166.088 596.104 165.64C595.304 165.184 594.612 164.556 594.028 163.756C593.452 162.956 593.008 162.032 592.696 160.984C592.384 159.928 592.228 158.8 592.228 157.6C592.228 156.4 592.384 155.276 592.696 154.228C593.008 153.172 593.452 152.244 594.028 151.444C594.612 150.644 595.304 150.02 596.104 149.572C596.904 149.116 597.792 148.888 598.768 148.888C599.744 148.888 600.632 149.116 601.432 149.572C602.232 150.02 602.916 150.644 603.484 151.444C604.06 152.244 604.504 153.172 604.816 154.228C605.136 155.276 605.296 156.4 605.296 157.6C605.296 158.8 605.136 159.928 604.816 160.984C604.504 162.032 604.06 162.956 603.484 163.756C602.916 164.556 602.232 165.184 601.432 165.64C600.632 166.088 599.744 166.312 598.768 166.312ZM598.768 163.384C599.624 163.384 600.332 163.112 600.892 162.568C601.452 162.024 601.868 161.312 602.14 160.432C602.412 159.552 602.548 158.608 602.548 157.6C602.548 156.536 602.404 155.568 602.116 154.696C601.828 153.816 601.404 153.116 600.844 152.596C600.284 152.076 599.592 151.816 598.768 151.816C598.12 151.816 597.556 151.976 597.076 152.296C596.604 152.608 596.212 153.036 595.9 153.58C595.588 154.124 595.356 154.744 595.204 155.44C595.052 156.128 594.976 156.848 594.976 157.6C594.976 158.6 595.112 159.544 595.384 160.432C595.664 161.312 596.084 162.024 596.644 162.568C597.212 163.112 597.92 163.384 598.768 163.384ZM608.476 166.312C608.06 166.312 607.704 166.168 607.408 165.88C607.12 165.584 606.976 165.224 606.976 164.8C606.976 164.392 607.12 164.04 607.408 163.744C607.704 163.448 608.06 163.3 608.476 163.3C608.892 163.3 609.248 163.448 609.544 163.744C609.84 164.04 609.988 164.392 609.988 164.8C609.988 165.224 609.84 165.584 609.544 165.88C609.248 166.168 608.892 166.312 608.476 166.312ZM618.69 166.312C617.714 166.312 616.826 166.088 616.026 165.64C615.226 165.184 614.534 164.556 613.95 163.756C613.374 162.956 612.93 162.032 612.618 160.984C612.306 159.928 612.15 158.8 612.15 157.6C612.15 156.4 612.306 155.276 612.618 154.228C612.93 153.172 613.374 152.244 613.95 151.444C614.534 150.644 615.226 150.02 616.026 149.572C616.826 149.116 617.714 148.888 618.69 148.888C619.666 148.888 620.554 149.116 621.354 149.572C622.154 150.02 622.838 150.644 623.406 151.444C623.982 152.244 624.426 153.172 624.738 154.228C625.058 155.276 625.218 156.4 625.218 157.6C625.218 158.8 625.058 159.928 624.738 160.984C624.426 162.032 623.982 162.956 623.406 163.756C622.838 164.556 622.154 165.184 621.354 165.64C620.554 166.088 619.666 166.312 618.69 166.312ZM618.69 163.384C619.546 163.384 620.254 163.112 620.814 162.568C621.374 162.024 621.79 161.312 622.062 160.432C622.334 159.552 622.47 158.608 622.47 157.6C622.47 156.536 622.326 155.568 622.038 154.696C621.75 153.816 621.326 153.116 620.766 152.596C620.206 152.076 619.514 151.816 618.69 151.816C618.042 151.816 617.478 151.976 616.998 152.296C616.526 152.608 616.134 153.036 615.822 153.58C615.51 154.124 615.278 154.744 615.126 155.44C614.974 156.128 614.898 156.848 614.898 157.6C614.898 158.6 615.034 159.544 615.306 160.432C615.586 161.312 616.006 162.024 616.566 162.568C617.134 163.112 617.842 163.384 618.69 163.384ZM632.658 166.312C631.682 166.312 630.794 166.088 629.994 165.64C629.194 165.184 628.502 164.556 627.918 163.756C627.342 162.956 626.898 162.032 626.586 160.984C626.274 159.928 626.118 158.8 626.118 157.6C626.118 156.4 626.274 155.276 626.586 154.228C626.898 153.172 627.342 152.244 627.918 151.444C628.502 150.644 629.194 150.02 629.994 149.572C630.794 149.116 631.682 148.888 632.658 148.888C633.634 148.888 634.522 149.116 635.322 149.572C636.122 150.02 636.806 150.644 637.374 151.444C637.95 152.244 638.394 153.172 638.706 154.228C639.026 155.276 639.186 156.4 639.186 157.6C639.186 158.8 639.026 159.928 638.706 160.984C638.394 162.032 637.95 162.956 637.374 163.756C636.806 164.556 636.122 165.184 635.322 165.64C634.522 166.088 633.634 166.312 632.658 166.312ZM632.658 163.384C633.514 163.384 634.222 163.112 634.782 162.568C635.342 162.024 635.758 161.312 636.03 160.432C636.302 159.552 636.438 158.608 636.438 157.6C636.438 156.536 636.294 155.568 636.006 154.696C635.718 153.816 635.294 153.116 634.734 152.596C634.174 152.076 633.482 151.816 632.658 151.816C632.01 151.816 631.446 151.976 630.966 152.296C630.494 152.608 630.102 153.036 629.79 153.58C629.478 154.124 629.246 154.744 629.094 155.44C628.942 156.128 628.866 156.848 628.866 157.6C628.866 158.6 629.002 159.544 629.274 160.432C629.554 161.312 629.974 162.024 630.534 162.568C631.102 163.112 631.81 163.384 632.658 163.384Z" fill="#192252"/>
<path d="M525.253 121.2V122.376H521.991V131H520.815V122.376H517.56V121.2H525.253ZM528.563 131.182C527.919 131.182 527.331 131.016 526.799 130.685C526.271 130.354 525.849 129.91 525.532 129.355C525.219 128.795 525.063 128.177 525.063 127.5C525.063 126.987 525.154 126.508 525.336 126.065C525.518 125.617 525.767 125.225 526.085 124.889C526.407 124.548 526.78 124.282 527.205 124.091C527.629 123.9 528.082 123.804 528.563 123.804C529.207 123.804 529.792 123.97 530.32 124.301C530.852 124.632 531.274 125.078 531.587 125.638C531.904 126.198 532.063 126.819 532.063 127.5C532.063 128.009 531.972 128.485 531.79 128.928C531.608 129.371 531.356 129.763 531.034 130.104C530.716 130.44 530.345 130.704 529.921 130.895C529.501 131.086 529.048 131.182 528.563 131.182ZM528.563 130.006C529.001 130.006 529.396 129.892 529.746 129.663C530.1 129.43 530.378 129.124 530.579 128.746C530.784 128.363 530.887 127.948 530.887 127.5C530.887 127.043 530.782 126.623 530.572 126.24C530.366 125.857 530.089 125.552 529.739 125.323C529.389 125.094 528.997 124.98 528.563 124.98C528.124 124.98 527.73 125.097 527.38 125.33C527.03 125.559 526.752 125.864 526.547 126.247C526.341 126.63 526.239 127.047 526.239 127.5C526.239 127.967 526.344 128.391 526.554 128.774C526.764 129.152 527.046 129.453 527.401 129.677C527.755 129.896 528.143 130.006 528.563 130.006ZM536.751 125.176H535.162L535.155 131H533.979L533.986 125.176H532.782V124H533.986L533.979 121.802H535.155L535.162 124H536.751V125.176ZM543.506 124H544.682V131H543.499L543.457 129.817C543.238 130.223 542.934 130.552 542.547 130.804C542.164 131.056 541.709 131.182 541.182 131.182C540.664 131.182 540.181 131.086 539.733 130.895C539.285 130.699 538.888 130.431 538.543 130.09C538.202 129.745 537.936 129.348 537.745 128.9C537.554 128.452 537.458 127.969 537.458 127.451C537.458 126.952 537.551 126.48 537.738 126.037C537.925 125.594 538.184 125.206 538.515 124.875C538.851 124.539 539.238 124.278 539.677 124.091C540.116 123.9 540.585 123.804 541.084 123.804C541.639 123.804 542.125 123.935 542.54 124.196C542.96 124.453 543.296 124.786 543.548 125.197L543.506 124ZM541.21 130.041C541.677 130.041 542.078 129.924 542.414 129.691C542.75 129.458 543.004 129.145 543.177 128.753C543.354 128.361 543.434 127.927 543.415 127.451C543.396 126.984 543.287 126.562 543.086 126.184C542.885 125.806 542.615 125.507 542.274 125.288C541.933 125.064 541.537 124.952 541.084 124.952C540.622 124.952 540.202 125.069 539.824 125.302C539.446 125.535 539.15 125.848 538.935 126.24C538.725 126.632 538.629 127.068 538.648 127.549C538.671 128.011 538.802 128.431 539.04 128.809C539.278 129.187 539.586 129.488 539.964 129.712C540.347 129.931 540.762 130.041 541.21 130.041ZM546.479 131V120.5H547.648V131H546.479ZM553.023 131V121.2H554.199V131H553.023ZM562.38 127.276V131H561.204V127.304C561.204 126.87 561.113 126.476 560.931 126.121C560.749 125.762 560.502 125.477 560.189 125.267C559.876 125.052 559.524 124.945 559.132 124.945C558.745 124.945 558.399 125.052 558.096 125.267C557.797 125.477 557.562 125.762 557.389 126.121C557.216 126.476 557.13 126.87 557.13 127.304V131H555.954V124H557.13V125.078C557.382 124.681 557.692 124.371 558.061 124.147C558.434 123.918 558.85 123.804 559.307 123.804C559.914 123.804 560.446 123.963 560.903 124.28C561.365 124.597 561.724 125.02 561.981 125.547C562.242 126.07 562.375 126.646 562.38 127.276ZM568.532 129.152L569.582 129.719C569.265 130.162 568.861 130.517 568.371 130.783C567.886 131.049 567.358 131.182 566.789 131.182C566.145 131.182 565.557 131.016 565.025 130.685C564.498 130.354 564.075 129.91 563.758 129.355C563.445 128.795 563.289 128.177 563.289 127.5C563.289 126.987 563.38 126.508 563.562 126.065C563.744 125.617 563.994 125.225 564.311 124.889C564.633 124.548 565.006 124.282 565.431 124.091C565.856 123.9 566.308 123.804 566.789 123.804C567.358 123.804 567.886 123.937 568.371 124.203C568.861 124.469 569.265 124.826 569.582 125.274L568.532 125.841C568.308 125.566 568.042 125.353 567.734 125.204C567.426 125.055 567.111 124.98 566.789 124.98C566.355 124.98 565.961 125.097 565.606 125.33C565.256 125.559 564.978 125.864 564.773 126.247C564.568 126.63 564.465 127.047 564.465 127.5C564.465 127.953 564.568 128.37 564.773 128.753C564.983 129.131 565.263 129.434 565.613 129.663C565.968 129.892 566.36 130.006 566.789 130.006C567.134 130.006 567.459 129.927 567.762 129.768C568.065 129.609 568.322 129.404 568.532 129.152ZM573.762 131.182C573.118 131.182 572.53 131.016 571.998 130.685C571.47 130.354 571.048 129.91 570.731 129.355C570.418 128.795 570.262 128.177 570.262 127.5C570.262 126.987 570.353 126.508 570.535 126.065C570.717 125.617 570.966 125.225 571.284 124.889C571.606 124.548 571.979 124.282 572.404 124.091C572.828 123.9 573.281 123.804 573.762 123.804C574.406 123.804 574.991 123.97 575.519 124.301C576.051 124.632 576.473 125.078 576.786 125.638C577.103 126.198 577.262 126.819 577.262 127.5C577.262 128.009 577.171 128.485 576.989 128.928C576.807 129.371 576.555 129.763 576.233 130.104C575.915 130.44 575.544 130.704 575.12 130.895C574.7 131.086 574.247 131.182 573.762 131.182ZM573.762 130.006C574.2 130.006 574.595 129.892 574.945 129.663C575.299 129.43 575.577 129.124 575.778 128.746C575.983 128.363 576.086 127.948 576.086 127.5C576.086 127.043 575.981 126.623 575.771 126.24C575.565 125.857 575.288 125.552 574.938 125.323C574.588 125.094 574.196 124.98 573.762 124.98C573.323 124.98 572.929 125.097 572.579 125.33C572.229 125.559 571.951 125.864 571.746 126.247C571.54 126.63 571.438 127.047 571.438 127.5C571.438 127.967 571.543 128.391 571.753 128.774C571.963 129.152 572.245 129.453 572.6 129.677C572.954 129.896 573.342 130.006 573.762 130.006ZM578.217 131V124H579.393V125.015C579.626 124.674 579.878 124.401 580.149 124.196C580.42 123.986 580.758 123.881 581.164 123.881C581.715 123.881 582.193 124.014 582.599 124.28C583.005 124.546 583.334 124.91 583.586 125.372C583.843 124.905 584.176 124.541 584.587 124.28C584.998 124.014 585.474 123.881 586.015 123.881C586.608 123.881 587.123 124.033 587.562 124.336C588.005 124.639 588.348 125.043 588.591 125.547C588.838 126.051 588.962 126.604 588.962 127.206V131H587.786V127.206C587.786 126.809 587.714 126.45 587.569 126.128C587.429 125.801 587.226 125.542 586.96 125.351C586.699 125.155 586.384 125.057 586.015 125.057C585.646 125.057 585.324 125.155 585.049 125.351C584.774 125.542 584.559 125.801 584.405 126.128C584.251 126.45 584.174 126.809 584.174 127.206V131H582.998V127.206C582.998 126.809 582.921 126.45 582.767 126.128C582.613 125.801 582.398 125.542 582.123 125.351C581.848 125.155 581.528 125.057 581.164 125.057C580.819 125.057 580.513 125.16 580.247 125.365C579.981 125.57 579.771 125.843 579.617 126.184C579.468 126.52 579.393 126.886 579.393 127.283V131H578.217ZM593.313 131.182C592.669 131.182 592.081 131.016 591.549 130.685C591.021 130.354 590.599 129.91 590.282 129.355C589.969 128.795 589.813 128.177 589.813 127.5C589.813 126.987 589.904 126.508 590.086 126.065C590.268 125.617 590.517 125.225 590.835 124.889C591.157 124.548 591.53 124.282 591.955 124.091C592.379 123.9 592.832 123.804 593.313 123.804C593.84 123.804 594.323 123.911 594.762 124.126C595.205 124.336 595.583 124.63 595.896 125.008C596.213 125.386 596.449 125.825 596.603 126.324C596.761 126.823 596.82 127.358 596.778 127.927H591.066C591.122 128.324 591.252 128.678 591.458 128.991C591.663 129.299 591.924 129.544 592.242 129.726C592.564 129.908 592.921 130.001 593.313 130.006C593.733 130.006 594.113 129.899 594.454 129.684C594.794 129.465 595.07 129.166 595.28 128.788L596.477 129.068C596.197 129.689 595.774 130.197 595.21 130.594C594.645 130.986 594.013 131.182 593.313 131.182ZM591.031 127.003H595.595C595.557 126.611 595.431 126.254 595.217 125.932C595.002 125.605 594.729 125.344 594.398 125.148C594.066 124.952 593.705 124.854 593.313 124.854C592.921 124.854 592.561 124.95 592.235 125.141C591.908 125.332 591.637 125.591 591.423 125.918C591.213 126.24 591.082 126.602 591.031 127.003Z" fill="#848FAC"/>
<rect x="517" y="180" width="60" height="22" rx="11" fill="#27AE60" fill-opacity="0.1"/>
<path d="M530.47 187.8H529.48L529.81 186.6H531.67V195H530.47V187.8ZM536.095 195.156C535.595 195.156 535.135 195.042 534.715 194.814C534.295 194.582 533.963 194.27 533.719 193.878C533.475 193.482 533.353 193.05 533.353 192.582C533.353 192.178 533.453 191.8 533.653 191.448C533.857 191.092 534.131 190.802 534.475 190.578C534.191 190.374 533.965 190.118 533.797 189.81C533.629 189.502 533.545 189.174 533.545 188.826C533.545 188.394 533.659 187.996 533.887 187.632C534.119 187.268 534.429 186.98 534.817 186.768C535.209 186.552 535.635 186.444 536.095 186.444C536.555 186.444 536.979 186.552 537.367 186.768C537.755 186.98 538.063 187.268 538.291 187.632C538.523 187.996 538.639 188.394 538.639 188.826C538.639 189.174 538.555 189.502 538.387 189.81C538.219 190.118 537.993 190.374 537.709 190.578C538.057 190.802 538.331 191.09 538.531 191.442C538.735 191.794 538.837 192.174 538.837 192.582C538.837 193.05 538.713 193.482 538.465 193.878C538.221 194.27 537.889 194.582 537.469 194.814C537.049 195.042 536.591 195.156 536.095 195.156ZM536.095 190.014C536.327 190.014 536.539 189.962 536.731 189.858C536.927 189.75 537.081 189.606 537.193 189.426C537.309 189.242 537.367 189.042 537.367 188.826C537.367 188.61 537.309 188.412 537.193 188.232C537.081 188.052 536.927 187.91 536.731 187.806C536.539 187.698 536.327 187.644 536.095 187.644C535.863 187.644 535.649 187.698 535.453 187.806C535.257 187.91 535.101 188.052 534.985 188.232C534.873 188.412 534.817 188.61 534.817 188.826C534.817 189.042 534.873 189.242 534.985 189.426C535.101 189.606 535.257 189.75 535.453 189.858C535.649 189.962 535.863 190.014 536.095 190.014ZM536.095 193.956C536.363 193.956 536.609 193.896 536.833 193.776C537.057 193.652 537.235 193.484 537.367 193.272C537.499 193.06 537.565 192.83 537.565 192.582C537.565 192.334 537.499 192.106 537.367 191.898C537.235 191.686 537.057 191.52 536.833 191.4C536.609 191.276 536.363 191.214 536.095 191.214C535.831 191.214 535.585 191.276 535.357 191.4C535.129 191.52 534.949 191.686 534.817 191.898C534.685 192.106 534.619 192.334 534.619 192.582C534.619 192.83 534.685 193.06 534.817 193.272C534.949 193.484 535.129 193.652 535.357 193.776C535.585 193.896 535.831 193.956 536.095 193.956ZM545.522 186.6H546.908L542.06 195H540.674L545.522 186.6ZM541.688 190.092C541.392 190.092 541.118 190.02 540.866 189.876C540.614 189.728 540.412 189.528 540.26 189.276C540.112 189.024 540.038 188.748 540.038 188.448C540.038 188.144 540.112 187.866 540.26 187.614C540.412 187.362 540.614 187.164 540.866 187.02C541.122 186.872 541.396 186.798 541.688 186.798C541.984 186.798 542.258 186.872 542.51 187.02C542.762 187.168 542.962 187.368 543.11 187.62C543.258 187.872 543.332 188.148 543.332 188.448C543.332 188.752 543.256 189.03 543.104 189.282C542.956 189.53 542.756 189.728 542.504 189.876C542.252 190.02 541.98 190.092 541.688 190.092ZM541.688 189.24C541.832 189.24 541.964 189.206 542.084 189.138C542.208 189.066 542.304 188.97 542.372 188.85C542.444 188.726 542.48 188.592 542.48 188.448C542.48 188.304 542.444 188.172 542.372 188.052C542.304 187.928 542.208 187.83 542.084 187.758C541.964 187.686 541.832 187.65 541.688 187.65C541.544 187.65 541.41 187.686 541.286 187.758C541.166 187.83 541.07 187.928 540.998 188.052C540.926 188.172 540.89 188.304 540.89 188.448C540.89 188.592 540.926 188.726 540.998 188.85C541.07 188.97 541.166 189.066 541.286 189.138C541.41 189.206 541.544 189.24 541.688 189.24ZM545.906 194.808C545.606 194.808 545.33 194.732 545.078 194.58C544.826 194.428 544.626 194.226 544.478 193.974C544.33 193.718 544.256 193.446 544.256 193.158C544.256 192.854 544.332 192.576 544.484 192.324C544.636 192.072 544.838 191.874 545.09 191.73C545.342 191.582 545.614 191.508 545.906 191.508C546.21 191.508 546.488 191.584 546.74 191.736C546.992 191.888 547.19 192.09 547.334 192.342C547.482 192.594 547.556 192.866 547.556 193.158C547.556 193.454 547.482 193.728 547.334 193.98C547.186 194.232 546.984 194.434 546.728 194.586C546.476 194.734 546.202 194.808 545.906 194.808ZM545.906 193.956C546.05 193.956 546.182 193.92 546.302 193.848C546.426 193.776 546.524 193.68 546.596 193.56C546.668 193.436 546.704 193.302 546.704 193.158C546.704 193.014 546.668 192.882 546.596 192.762C546.524 192.638 546.426 192.54 546.302 192.468C546.182 192.396 546.05 192.36 545.906 192.36C545.762 192.36 545.628 192.396 545.504 192.468C545.384 192.54 545.288 192.638 545.216 192.762C545.144 192.882 545.108 193.014 545.108 193.158C545.108 193.302 545.144 193.436 545.216 193.56C545.288 193.68 545.384 193.776 545.504 193.848C545.628 193.92 545.762 193.956 545.906 193.956Z" fill="#27AE60"/>
<path d="M564.5 188L559.75 192.75L557.25 190.25L553.5 194" stroke="#27AE60" stroke-linecap="round" stroke-linejoin="round"/>
<path d="M561.5 188H564.5V191" stroke="#27AE60" stroke-linecap="round" stroke-linejoin="round"/>
<rect x="440" y="246" width="154" height="56" rx="8" fill="white"/>
<path d="M489.488 280.208C488.592 280.208 487.803 279.989 487.12 279.552C486.443 279.115 485.912 278.528 485.528 277.792C485.149 277.051 484.96 276.229 484.96 275.328V268.8H487.168V275.328C487.168 275.813 487.259 276.259 487.44 276.664C487.621 277.069 487.885 277.395 488.232 277.64C488.579 277.88 488.997 278 489.488 278C489.984 278 490.403 277.88 490.744 277.64C491.091 277.4 491.352 277.077 491.528 276.672C491.704 276.267 491.792 275.819 491.792 275.328V268.8H494V275.328C494 276.005 493.891 276.64 493.672 277.232C493.459 277.819 493.152 278.336 492.752 278.784C492.352 279.232 491.875 279.581 491.32 279.832C490.771 280.083 490.16 280.208 489.488 280.208ZM498.121 284H495.913V272H498.121V272.864C498.377 272.549 498.681 272.293 499.033 272.096C499.385 271.893 499.796 271.792 500.265 271.792C500.846 271.792 501.39 271.901 501.897 272.12C502.409 272.339 502.857 272.643 503.241 273.032C503.625 273.416 503.926 273.861 504.145 274.368C504.364 274.875 504.473 275.419 504.473 276C504.473 276.581 504.364 277.128 504.145 277.64C503.926 278.152 503.625 278.603 503.241 278.992C502.857 279.376 502.409 279.677 501.897 279.896C501.39 280.115 500.846 280.224 500.265 280.224C499.796 280.224 499.385 280.123 499.033 279.92C498.681 279.717 498.377 279.461 498.121 279.152V284ZM500.233 273.912C499.87 273.912 499.542 274.008 499.249 274.2C498.961 274.387 498.732 274.637 498.561 274.952C498.396 275.267 498.313 275.616 498.313 276C498.313 276.384 498.396 276.736 498.561 277.056C498.732 277.371 498.961 277.621 499.249 277.808C499.542 277.995 499.87 278.088 500.233 278.088C500.596 278.088 500.926 277.995 501.225 277.808C501.529 277.621 501.769 277.371 501.945 277.056C502.126 276.741 502.217 276.389 502.217 276C502.217 275.621 502.129 275.275 501.953 274.96C501.777 274.64 501.537 274.387 501.233 274.2C500.934 274.008 500.601 273.912 500.233 273.912ZM511.721 272H513.929V280.112C513.929 280.704 513.809 281.237 513.569 281.712C513.329 282.192 513.001 282.603 512.585 282.944C512.174 283.285 511.7 283.547 511.161 283.728C510.628 283.909 510.062 284 509.465 284C508.9 284 508.358 283.888 507.841 283.664C507.324 283.445 506.865 283.141 506.465 282.752C506.065 282.363 505.753 281.915 505.529 281.408L507.545 280.488C507.657 280.755 507.809 280.984 508.001 281.176C508.198 281.368 508.422 281.515 508.673 281.616C508.929 281.723 509.193 281.776 509.465 281.776C509.758 281.776 510.038 281.741 510.305 281.672C510.577 281.603 510.82 281.499 511.033 281.36C511.246 281.221 511.414 281.048 511.537 280.84C511.66 280.632 511.721 280.389 511.721 280.112V279.184C511.476 279.488 511.177 279.736 510.825 279.928C510.478 280.115 510.076 280.208 509.617 280.208C509.041 280.208 508.5 280.099 507.993 279.88C507.492 279.661 507.049 279.36 506.665 278.976C506.281 278.587 505.98 278.139 505.761 277.632C505.542 277.125 505.433 276.581 505.433 276C505.433 275.419 505.542 274.875 505.761 274.368C505.98 273.861 506.281 273.416 506.665 273.032C507.049 272.643 507.492 272.339 507.993 272.12C508.5 271.901 509.041 271.792 509.617 271.792C510.076 271.792 510.478 271.888 510.825 272.08C511.177 272.267 511.476 272.512 511.721 272.816V272ZM509.649 278.088C510.012 278.088 510.34 277.995 510.633 277.808C510.926 277.616 511.156 277.363 511.321 277.048C511.492 276.733 511.577 276.384 511.577 276C511.577 275.616 511.492 275.267 511.321 274.952C511.156 274.632 510.926 274.379 510.633 274.192C510.34 274.005 510.012 273.912 509.649 273.912C509.292 273.912 508.964 274.005 508.665 274.192C508.372 274.379 508.137 274.632 507.961 274.952C507.785 275.267 507.697 275.616 507.697 276C507.697 276.384 507.785 276.736 507.961 277.056C508.137 277.371 508.372 277.621 508.665 277.808C508.964 277.995 509.292 278.088 509.649 278.088ZM520.835 274.256C520.691 274.149 520.531 274.067 520.355 274.008C520.179 273.944 519.984 273.912 519.771 273.912C519.408 273.912 519.099 274.005 518.843 274.192C518.592 274.373 518.4 274.619 518.267 274.928C518.139 275.237 518.075 275.581 518.075 275.96V280H515.851V272H518.059V272.824C518.315 272.515 518.616 272.267 518.963 272.08C519.315 271.888 519.715 271.792 520.163 271.792C520.344 271.792 520.52 271.797 520.691 271.808C520.861 271.813 521.027 271.84 521.187 271.888L520.835 274.256ZM527.858 272H530.066V280H527.85L527.754 279.168C527.546 279.477 527.279 279.728 526.954 279.92C526.628 280.112 526.247 280.208 525.81 280.208C525.212 280.208 524.652 280.096 524.13 279.872C523.612 279.648 523.156 279.339 522.762 278.944C522.372 278.549 522.066 278.093 521.842 277.576C521.623 277.053 521.514 276.493 521.514 275.896C521.514 275.325 521.618 274.792 521.826 274.296C522.034 273.8 522.327 273.363 522.706 272.984C523.084 272.605 523.519 272.309 524.01 272.096C524.506 271.883 525.036 271.776 525.602 271.776C526.092 271.776 526.535 271.88 526.93 272.088C527.324 272.296 527.668 272.56 527.962 272.88L527.858 272ZM525.874 278.088C526.252 278.088 526.586 277.989 526.874 277.792C527.162 277.589 527.38 277.323 527.53 276.992C527.679 276.661 527.73 276.296 527.682 275.896C527.639 275.528 527.519 275.195 527.322 274.896C527.124 274.592 526.874 274.352 526.57 274.176C526.271 274 525.948 273.912 525.602 273.912C525.223 273.912 524.887 274.011 524.594 274.208C524.3 274.405 524.076 274.669 523.922 275C523.767 275.331 523.708 275.699 523.746 276.104C523.794 276.467 523.919 276.8 524.122 277.104C524.33 277.403 524.586 277.643 524.89 277.824C525.199 278 525.527 278.088 525.874 278.088ZM537.559 268H539.767V280H537.559V279.152C537.313 279.461 537.009 279.715 536.647 279.912C536.284 280.109 535.871 280.208 535.407 280.208C534.825 280.208 534.281 280.099 533.775 279.88C533.268 279.661 532.82 279.36 532.431 278.976C532.047 278.587 531.745 278.139 531.527 277.632C531.308 277.125 531.199 276.581 531.199 276C531.199 275.419 531.308 274.875 531.527 274.368C531.745 273.861 532.047 273.416 532.431 273.032C532.82 272.643 533.268 272.339 533.775 272.12C534.281 271.901 534.825 271.792 535.407 271.792C535.871 271.792 536.284 271.891 536.647 272.088C537.009 272.28 537.313 272.533 537.559 272.848V268ZM535.439 278.088C535.801 278.088 536.129 277.995 536.423 277.808C536.716 277.621 536.948 277.371 537.119 277.056C537.289 276.736 537.375 276.384 537.375 276C537.375 275.611 537.289 275.259 537.119 274.944C536.948 274.629 536.716 274.379 536.423 274.192C536.129 274.005 535.801 273.912 535.439 273.912C535.076 273.912 534.745 274.005 534.447 274.192C534.148 274.379 533.908 274.632 533.727 274.952C533.551 275.267 533.463 275.616 533.463 276C533.463 276.384 533.551 276.736 533.727 277.056C533.908 277.371 534.148 277.621 534.447 277.808C534.745 277.995 535.076 278.088 535.439 278.088ZM545.089 280.208C544.353 280.208 543.681 280.019 543.073 279.64C542.471 279.261 541.988 278.752 541.625 278.112C541.268 277.472 541.089 276.765 541.089 275.992C541.089 275.411 541.193 274.867 541.401 274.36C541.609 273.848 541.895 273.4 542.257 273.016C542.625 272.627 543.052 272.323 543.537 272.104C544.023 271.885 544.54 271.776 545.089 271.776C545.724 271.776 546.303 271.912 546.825 272.184C547.353 272.456 547.799 272.827 548.161 273.296C548.529 273.765 548.791 274.296 548.945 274.888C549.105 275.48 549.132 276.096 549.025 276.736H543.473C543.543 276.971 543.649 277.184 543.793 277.376C543.943 277.563 544.124 277.712 544.337 277.824C544.556 277.936 544.807 277.995 545.089 278C545.367 278.005 545.623 277.941 545.857 277.808C546.092 277.675 546.292 277.496 546.457 277.272L548.713 277.792C548.388 278.501 547.903 279.083 547.257 279.536C546.612 279.984 545.889 280.208 545.089 280.208ZM543.393 275.104H546.793C546.724 274.837 546.607 274.597 546.441 274.384C546.276 274.171 546.076 274.003 545.841 273.88C545.612 273.757 545.361 273.696 545.089 273.696C544.823 273.696 544.572 273.757 544.337 273.88C544.108 274.003 543.911 274.171 543.745 274.384C543.585 274.592 543.468 274.832 543.393 275.104Z" fill="#FC9770"/>
<rect width="278" height="72" rx="8" fill="white"/>
<path d="M36 26C30.49 26 26 30.49 26 36C26 41.51 30.49 46 36 46C41.51 46 46 41.51 46 36C46 30.49 41.51 26 36 26ZM40.78 33.7L35.11 39.37C34.97 39.51 34.78 39.59 34.58 39.59C34.38 39.59 34.19 39.51 34.05 39.37L31.22 36.54C30.93 36.25 30.93 35.77 31.22 35.48C31.51 35.19 31.99 35.19 32.28 35.48L34.58 37.78L39.72 32.64C40.01 32.35 40.49 32.35 40.78 32.64C41.07 32.93 41.07 33.4 40.78 33.7Z" fill="#219653"/>
<path d="M60.96 41.5L63.136 30.3H64.752L67.48 37.476L70.208 30.3H71.824L74 41.5H72.008L70.664 34.572L68.144 41.244H66.808L64.288 34.572L62.952 41.5H60.96ZM78.5894 41.708C77.8534 41.708 77.1814 41.5187 76.5734 41.14C75.9707 40.7613 75.488 40.2547 75.1254 39.62C74.768 38.98 74.5894 38.2733 74.5894 37.5C74.5894 36.9133 74.6934 36.3667 74.9014 35.86C75.1094 35.348 75.3947 34.9 75.7574 34.516C76.1254 34.1267 76.552 33.8227 77.0374 33.604C77.5227 33.3853 78.04 33.276 78.5894 33.276C79.3254 33.276 79.9947 33.4653 80.5974 33.844C81.2054 34.2227 81.688 34.732 82.0454 35.372C82.408 36.012 82.5894 36.7213 82.5894 37.5C82.5894 38.0813 82.4854 38.6253 82.2774 39.132C82.0694 39.6387 81.7814 40.0867 81.4134 40.476C81.0507 40.86 80.6267 41.1613 80.1414 41.38C79.6614 41.5987 79.144 41.708 78.5894 41.708ZM78.5894 39.756C78.9787 39.756 79.328 39.652 79.6374 39.444C79.9467 39.236 80.1894 38.9613 80.3654 38.62C80.5467 38.2787 80.6374 37.9053 80.6374 37.5C80.6374 37.084 80.544 36.7053 80.3574 36.364C80.176 36.0173 79.928 35.7427 79.6134 35.54C79.304 35.332 78.9627 35.228 78.5894 35.228C78.2054 35.228 77.8587 35.332 77.5494 35.54C77.24 35.748 76.9947 36.0253 76.8134 36.372C76.632 36.7187 76.5414 37.0947 76.5414 37.5C76.5414 37.9213 76.6347 38.3027 76.8214 38.644C77.008 38.9853 77.256 39.2573 77.5654 39.46C77.88 39.6573 78.2214 39.756 78.5894 39.756ZM91.467 37.364V41.5H89.515V37.396C89.515 36.9853 89.4297 36.612 89.259 36.276C89.0883 35.9347 88.851 35.6627 88.547 35.46C88.2483 35.2573 87.9017 35.156 87.507 35.156C87.123 35.156 86.7897 35.2573 86.507 35.46C86.2243 35.6627 86.0057 35.9347 85.851 36.276C85.7017 36.612 85.627 36.9853 85.627 37.396V41.5H83.675V33.5H85.627V34.444C85.8937 34.0867 86.211 33.804 86.579 33.596C86.9523 33.3827 87.3737 33.276 87.843 33.276C88.579 33.276 89.2163 33.4627 89.755 33.836C90.299 34.204 90.7177 34.6973 91.011 35.316C91.3097 35.9347 91.4617 36.6173 91.467 37.364ZM96.4644 41.708C95.7284 41.708 95.0564 41.5187 94.4484 41.14C93.8457 40.7613 93.363 40.252 93.0004 39.612C92.643 38.972 92.4644 38.2653 92.4644 37.492C92.4644 36.9107 92.5684 36.3667 92.7764 35.86C92.9844 35.348 93.2697 34.9 93.6324 34.516C94.0004 34.1267 94.427 33.8227 94.9124 33.604C95.3977 33.3853 95.915 33.276 96.4644 33.276C97.0884 33.276 97.659 33.4093 98.1764 33.676C98.699 33.9373 99.1417 34.2973 99.5044 34.756C99.867 35.2147 100.131 35.7373 100.296 36.324C100.462 36.9107 100.499 37.524 100.408 38.164H94.5604C94.635 38.4627 94.7577 38.732 94.9284 38.972C95.099 39.2067 95.315 39.396 95.5764 39.54C95.8377 39.6787 96.1337 39.7507 96.4644 39.756C96.8057 39.7613 97.115 39.6813 97.3924 39.516C97.675 39.3453 97.9097 39.116 98.0964 38.828L100.088 39.292C99.763 40.0013 99.2777 40.5827 98.6324 41.036C97.987 41.484 97.2644 41.708 96.4644 41.708ZM94.4964 36.7H98.4324C98.3737 36.38 98.2484 36.092 98.0564 35.836C97.8697 35.5747 97.6377 35.3667 97.3604 35.212C97.083 35.0573 96.7844 34.98 96.4644 34.98C96.1444 34.98 95.8484 35.0573 95.5764 35.212C95.3044 35.3613 95.0724 35.5667 94.8804 35.828C94.6937 36.084 94.5657 36.3747 94.4964 36.7ZM106.698 33.5H108.77L104.394 45.5H102.322L103.77 41.5L100.89 33.5H103.026L104.746 38.828L106.698 33.5ZM122.69 30.3V32.252H119.266V41.5H117.314V32.252H113.89V30.3H122.69ZM128.105 35.484C127.961 35.388 127.804 35.3107 127.633 35.252C127.468 35.1933 127.284 35.164 127.081 35.164C126.692 35.164 126.356 35.2653 126.073 35.468C125.796 35.6707 125.583 35.9427 125.433 36.284C125.284 36.62 125.209 36.9933 125.209 37.404V41.5H123.241V33.5H125.193V34.444C125.46 34.092 125.777 33.812 126.145 33.604C126.519 33.396 126.94 33.292 127.409 33.292C127.591 33.292 127.764 33.2973 127.929 33.308C128.1 33.3187 128.263 33.348 128.417 33.396L128.105 35.484ZM135.229 33.5H137.181V41.5H135.221L135.141 40.508C134.917 40.8653 134.623 41.156 134.261 41.38C133.903 41.5987 133.482 41.708 132.997 41.708C132.405 41.708 131.85 41.596 131.333 41.372C130.815 41.148 130.359 40.8387 129.965 40.444C129.57 40.0493 129.263 39.5933 129.045 39.076C128.826 38.5587 128.717 38.004 128.717 37.412C128.717 36.8413 128.821 36.3053 129.029 35.804C129.237 35.3027 129.53 34.8627 129.909 34.484C130.287 34.1053 130.725 33.8093 131.221 33.596C131.717 33.3827 132.25 33.276 132.821 33.276C133.354 33.276 133.829 33.3933 134.245 33.628C134.666 33.8627 135.023 34.1613 135.317 34.524L135.229 33.5ZM133.053 39.828C133.479 39.828 133.85 39.7187 134.165 39.5C134.479 39.2813 134.717 38.9907 134.877 38.628C135.042 38.26 135.109 37.8547 135.077 37.412C135.039 36.996 134.917 36.62 134.709 36.284C134.501 35.9427 134.234 35.6707 133.909 35.468C133.583 35.2653 133.218 35.164 132.813 35.164C132.391 35.164 132.013 35.2733 131.677 35.492C131.346 35.7107 131.09 36.004 130.909 36.372C130.727 36.7347 130.655 37.14 130.693 37.588C130.735 37.9987 130.869 38.3747 131.093 38.716C131.317 39.052 131.599 39.3213 131.941 39.524C132.287 39.7267 132.658 39.828 133.053 39.828ZM146.733 37.364V41.5H144.781V37.396C144.781 36.9853 144.695 36.612 144.525 36.276C144.354 35.9347 144.117 35.6627 143.813 35.46C143.514 35.2573 143.167 35.156 142.773 35.156C142.389 35.156 142.055 35.2573 141.773 35.46C141.49 35.6627 141.271 35.9347 141.117 36.276C140.967 36.612 140.893 36.9853 140.893 37.396V41.5H138.941V33.5H140.893V34.444C141.159 34.0867 141.477 33.804 141.845 33.596C142.218 33.3827 142.639 33.276 143.109 33.276C143.845 33.276 144.482 33.4627 145.021 33.836C145.565 34.204 145.983 34.6973 146.277 35.316C146.575 35.9347 146.727 36.6173 146.733 37.364ZM150.931 41.644C150.515 41.6173 150.113 41.5347 149.723 41.396C149.339 41.252 148.998 41.0573 148.699 40.812C148.401 40.5667 148.171 40.2733 148.011 39.932L149.659 39.228C149.723 39.3347 149.827 39.4493 149.971 39.572C150.115 39.6893 150.286 39.788 150.483 39.868C150.686 39.948 150.907 39.988 151.147 39.988C151.35 39.988 151.542 39.9613 151.723 39.908C151.91 39.8493 152.059 39.7613 152.171 39.644C152.289 39.5267 152.347 39.3747 152.347 39.188C152.347 38.9907 152.278 38.8387 152.139 38.732C152.006 38.62 151.835 38.5373 151.627 38.484C151.425 38.4253 151.227 38.372 151.035 38.324C150.529 38.2227 150.057 38.0653 149.619 37.852C149.187 37.6387 148.838 37.364 148.571 37.028C148.31 36.6867 148.179 36.276 148.179 35.796C148.179 35.268 148.318 34.812 148.595 34.428C148.873 34.044 149.238 33.748 149.691 33.54C150.145 33.332 150.633 33.228 151.155 33.228C151.79 33.228 152.371 33.3613 152.899 33.628C153.433 33.8893 153.854 34.26 154.163 34.74L152.619 35.652C152.545 35.524 152.441 35.4067 152.307 35.3C152.174 35.188 152.022 35.0973 151.851 35.028C151.681 34.9533 151.502 34.9107 151.315 34.9C151.075 34.8893 150.857 34.9107 150.659 34.964C150.462 35.0173 150.302 35.108 150.179 35.236C150.062 35.364 150.003 35.5347 150.003 35.748C150.003 35.9507 150.083 36.1027 150.243 36.204C150.403 36.3 150.595 36.3747 150.819 36.428C151.049 36.4813 151.267 36.54 151.475 36.604C151.945 36.7587 152.385 36.948 152.795 37.172C153.211 37.396 153.545 37.6707 153.795 37.996C154.046 38.3213 154.166 38.7107 154.155 39.164C154.155 39.6813 154.001 40.1347 153.691 40.524C153.382 40.908 152.982 41.2013 152.491 41.404C152.006 41.6067 151.486 41.6867 150.931 41.644ZM157.865 31.82V33.5H160.049V35.452H157.865V41.5H155.913V35.452H155.041V33.5H155.913V31.82C155.913 31.3613 156.025 30.9427 156.249 30.564C156.478 30.18 156.785 29.876 157.169 29.652C157.553 29.4227 157.977 29.308 158.441 29.308C158.777 29.308 159.11 29.3773 159.441 29.516C159.771 29.6547 160.065 29.868 160.321 30.156L158.913 31.532C158.865 31.4413 158.795 31.3747 158.705 31.332C158.619 31.284 158.531 31.26 158.441 31.26C158.286 31.26 158.15 31.316 158.033 31.428C157.921 31.5347 157.865 31.6653 157.865 31.82ZM164.73 41.708C163.994 41.708 163.322 41.5187 162.714 41.14C162.111 40.7613 161.629 40.252 161.266 39.612C160.909 38.972 160.73 38.2653 160.73 37.492C160.73 36.9107 160.834 36.3667 161.042 35.86C161.25 35.348 161.535 34.9 161.898 34.516C162.266 34.1267 162.693 33.8227 163.178 33.604C163.663 33.3853 164.181 33.276 164.73 33.276C165.354 33.276 165.925 33.4093 166.442 33.676C166.965 33.9373 167.407 34.2973 167.77 34.756C168.133 35.2147 168.397 35.7373 168.562 36.324C168.727 36.9107 168.765 37.524 168.674 38.164H162.826C162.901 38.4627 163.023 38.732 163.194 38.972C163.365 39.2067 163.581 39.396 163.842 39.54C164.103 39.6787 164.399 39.7507 164.73 39.756C165.071 39.7613 165.381 39.6813 165.658 39.516C165.941 39.3453 166.175 39.116 166.362 38.828L168.354 39.292C168.029 40.0013 167.543 40.5827 166.898 41.036C166.253 41.484 165.53 41.708 164.73 41.708ZM162.762 36.7H166.698C166.639 36.38 166.514 36.092 166.322 35.836C166.135 35.5747 165.903 35.3667 165.626 35.212C165.349 35.0573 165.05 34.98 164.73 34.98C164.41 34.98 164.114 35.0573 163.842 35.212C163.57 35.3613 163.338 35.5667 163.146 35.828C162.959 36.084 162.831 36.3747 162.762 36.7ZM174.84 35.484C174.696 35.388 174.538 35.3107 174.368 35.252C174.202 35.1933 174.018 35.164 173.816 35.164C173.426 35.164 173.09 35.2653 172.808 35.468C172.53 35.6707 172.317 35.9427 172.168 36.284C172.018 36.62 171.944 36.9933 171.944 37.404V41.5H169.976V33.5H171.928V34.444C172.194 34.092 172.512 33.812 172.88 33.604C173.253 33.396 173.674 33.292 174.144 33.292C174.325 33.292 174.498 33.2973 174.664 33.308C174.834 33.3187 174.997 33.348 175.152 33.396L174.84 35.484ZM184.226 41.708C183.608 41.708 183.013 41.612 182.442 41.42C181.877 41.2227 181.381 40.9427 180.954 40.58C180.528 40.212 180.221 39.772 180.034 39.26L181.866 38.588C181.941 38.8013 182.093 38.996 182.322 39.172C182.552 39.348 182.832 39.4893 183.162 39.596C183.493 39.7027 183.848 39.756 184.226 39.756C184.616 39.756 184.978 39.6973 185.314 39.58C185.656 39.4573 185.93 39.2893 186.138 39.076C186.346 38.8573 186.45 38.604 186.45 38.316C186.45 38.0227 186.341 37.7827 186.122 37.596C185.904 37.404 185.624 37.252 185.282 37.14C184.941 37.028 184.589 36.9427 184.226 36.884C183.432 36.7613 182.72 36.572 182.09 36.316C181.461 36.06 180.962 35.7053 180.594 35.252C180.232 34.7987 180.05 34.212 180.05 33.492C180.05 32.8147 180.245 32.2227 180.634 31.716C181.024 31.2093 181.536 30.8147 182.17 30.532C182.805 30.2493 183.49 30.108 184.226 30.108C184.84 30.108 185.432 30.204 186.002 30.396C186.573 30.588 187.072 30.868 187.498 31.236C187.93 31.604 188.24 32.0467 188.426 32.564L186.586 33.228C186.512 33.0147 186.36 32.82 186.13 32.644C185.901 32.468 185.621 32.3293 185.29 32.228C184.96 32.1213 184.605 32.068 184.226 32.068C183.848 32.0627 183.488 32.124 183.146 32.252C182.81 32.3747 182.536 32.5427 182.322 32.756C182.109 32.9693 182.002 33.2147 182.002 33.492C182.002 33.8493 182.101 34.1187 182.298 34.3C182.501 34.4813 182.77 34.6147 183.106 34.7C183.442 34.78 183.816 34.8547 184.226 34.924C184.973 35.0413 185.664 35.2387 186.298 35.516C186.933 35.7933 187.442 36.164 187.826 36.628C188.21 37.0867 188.402 37.6493 188.402 38.316C188.402 38.9933 188.21 39.588 187.826 40.1C187.442 40.6067 186.933 41.0013 186.298 41.284C185.664 41.5667 184.973 41.708 184.226 41.708ZM189.991 37.62V33.5H191.943V37.588C191.943 37.9987 192.029 38.3747 192.199 38.716C192.37 39.0573 192.607 39.3293 192.911 39.532C193.215 39.7293 193.562 39.828 193.951 39.828C194.341 39.828 194.674 39.7293 194.951 39.532C195.234 39.3293 195.45 39.0573 195.599 38.716C195.754 38.3747 195.831 37.9987 195.831 37.588V33.5H197.783V41.5H195.831V40.548C195.57 40.9 195.253 41.1853 194.879 41.404C194.511 41.6173 194.093 41.724 193.623 41.724C192.882 41.724 192.242 41.54 191.703 41.172C191.165 40.7987 190.746 40.3027 190.447 39.684C190.149 39.06 189.997 38.372 189.991 37.62ZM204.545 39.092L206.305 40.044C205.937 40.5453 205.476 40.948 204.921 41.252C204.366 41.556 203.761 41.708 203.105 41.708C202.369 41.708 201.697 41.5187 201.089 41.14C200.486 40.7613 200.004 40.2547 199.641 39.62C199.284 38.98 199.105 38.2733 199.105 37.5C199.105 36.9133 199.209 36.3667 199.417 35.86C199.625 35.348 199.91 34.9 200.273 34.516C200.641 34.1267 201.068 33.8227 201.553 33.604C202.038 33.3853 202.556 33.276 203.105 33.276C203.761 33.276 204.366 33.428 204.921 33.732C205.476 34.036 205.937 34.444 206.305 34.956L204.545 35.9C204.358 35.6867 204.137 35.5213 203.881 35.404C203.63 35.2867 203.372 35.228 203.105 35.228C202.721 35.228 202.374 35.3347 202.065 35.548C201.756 35.756 201.51 36.0333 201.329 36.38C201.148 36.7213 201.057 37.0947 201.057 37.5C201.057 37.9 201.148 38.2733 201.329 38.62C201.51 38.9613 201.756 39.236 202.065 39.444C202.374 39.652 202.721 39.756 203.105 39.756C203.382 39.756 203.646 39.6973 203.897 39.58C204.148 39.4573 204.364 39.2947 204.545 39.092ZM212.389 39.092L214.149 40.044C213.781 40.5453 213.319 40.948 212.765 41.252C212.21 41.556 211.605 41.708 210.949 41.708C210.213 41.708 209.541 41.5187 208.933 41.14C208.33 40.7613 207.847 40.2547 207.485 39.62C207.127 38.98 206.949 38.2733 206.949 37.5C206.949 36.9133 207.053 36.3667 207.261 35.86C207.469 35.348 207.754 34.9 208.117 34.516C208.485 34.1267 208.911 33.8227 209.397 33.604C209.882 33.3853 210.399 33.276 210.949 33.276C211.605 33.276 212.21 33.428 212.765 33.732C213.319 34.036 213.781 34.444 214.149 34.956L212.389 35.9C212.202 35.6867 211.981 35.5213 211.725 35.404C211.474 35.2867 211.215 35.228 210.949 35.228C210.565 35.228 210.218 35.3347 209.909 35.548C209.599 35.756 209.354 36.0333 209.173 36.38C208.991 36.7213 208.901 37.0947 208.901 37.5C208.901 37.9 208.991 38.2733 209.173 38.62C209.354 38.9613 209.599 39.236 209.909 39.444C210.218 39.652 210.565 39.756 210.949 39.756C211.226 39.756 211.49 39.6973 211.741 39.58C211.991 39.4573 212.207 39.2947 212.389 39.092ZM218.793 41.708C218.057 41.708 217.385 41.5187 216.777 41.14C216.174 40.7613 215.691 40.252 215.329 39.612C214.971 38.972 214.793 38.2653 214.793 37.492C214.793 36.9107 214.897 36.3667 215.105 35.86C215.313 35.348 215.598 34.9 215.961 34.516C216.329 34.1267 216.755 33.8227 217.241 33.604C217.726 33.3853 218.243 33.276 218.793 33.276C219.417 33.276 219.987 33.4093 220.505 33.676C221.027 33.9373 221.47 34.2973 221.833 34.756C222.195 35.2147 222.459 35.7373 222.625 36.324C222.79 36.9107 222.827 37.524 222.737 38.164H216.889C216.963 38.4627 217.086 38.732 217.257 38.972C217.427 39.2067 217.643 39.396 217.905 39.54C218.166 39.6787 218.462 39.7507 218.793 39.756C219.134 39.7613 219.443 39.6813 219.721 39.516C220.003 39.3453 220.238 39.116 220.425 38.828L222.417 39.292C222.091 40.0013 221.606 40.5827 220.961 41.036C220.315 41.484 219.593 41.708 218.793 41.708ZM216.825 36.7H220.761C220.702 36.38 220.577 36.092 220.385 35.836C220.198 35.5747 219.966 35.3667 219.689 35.212C219.411 35.0573 219.113 34.98 218.793 34.98C218.473 34.98 218.177 35.0573 217.905 35.212C217.633 35.3613 217.401 35.5667 217.209 35.828C217.022 36.084 216.894 36.3747 216.825 36.7ZM226.666 41.644C226.25 41.6173 225.847 41.5347 225.458 41.396C225.074 41.252 224.732 41.0573 224.434 40.812C224.135 40.5667 223.906 40.2733 223.746 39.932L225.394 39.228C225.458 39.3347 225.562 39.4493 225.706 39.572C225.85 39.6893 226.02 39.788 226.218 39.868C226.42 39.948 226.642 39.988 226.882 39.988C227.084 39.988 227.276 39.9613 227.458 39.908C227.644 39.8493 227.794 39.7613 227.906 39.644C228.023 39.5267 228.082 39.3747 228.082 39.188C228.082 38.9907 228.012 38.8387 227.874 38.732C227.74 38.62 227.57 38.5373 227.362 38.484C227.159 38.4253 226.962 38.372 226.77 38.324C226.263 38.2227 225.791 38.0653 225.354 37.852C224.922 37.6387 224.572 37.364 224.306 37.028C224.044 36.6867 223.914 36.276 223.914 35.796C223.914 35.268 224.052 34.812 224.33 34.428C224.607 34.044 224.972 33.748 225.426 33.54C225.879 33.332 226.367 33.228 226.89 33.228C227.524 33.228 228.106 33.3613 228.634 33.628C229.167 33.8893 229.588 34.26 229.898 34.74L228.354 35.652C228.279 35.524 228.175 35.4067 228.042 35.3C227.908 35.188 227.756 35.0973 227.586 35.028C227.415 34.9533 227.236 34.9107 227.05 34.9C226.81 34.8893 226.591 34.9107 226.394 34.964C226.196 35.0173 226.036 35.108 225.914 35.236C225.796 35.364 225.738 35.5347 225.738 35.748C225.738 35.9507 225.818 36.1027 225.978 36.204C226.138 36.3 226.33 36.3747 226.554 36.428C226.783 36.4813 227.002 36.54 227.21 36.604C227.679 36.7587 228.119 36.948 228.53 37.172C228.946 37.396 229.279 37.6707 229.53 37.996C229.78 38.3213 229.9 38.7107 229.89 39.164C229.89 39.6813 229.735 40.1347 229.426 40.524C229.116 40.908 228.716 41.2013 228.226 41.404C227.74 41.6067 227.22 41.6867 226.666 41.644ZM233.599 31.82V33.5H235.783V35.452H233.599V41.5H231.647V35.452H230.775V33.5H231.647V31.82C231.647 31.3613 231.759 30.9427 231.983 30.564C232.212 30.18 232.519 29.876 232.903 29.652C233.287 29.4227 233.711 29.308 234.175 29.308C234.511 29.308 234.844 29.3773 235.175 29.516C235.506 29.6547 235.799 29.868 236.055 30.156L234.647 31.532C234.599 31.4413 234.53 31.3747 234.439 31.332C234.354 31.284 234.266 31.26 234.175 31.26C234.02 31.26 233.884 31.316 233.767 31.428C233.655 31.5347 233.599 31.6653 233.599 31.82ZM237.241 37.62V33.5H239.193V37.588C239.193 37.9987 239.279 38.3747 239.449 38.716C239.62 39.0573 239.857 39.3293 240.161 39.532C240.465 39.7293 240.812 39.828 241.201 39.828C241.591 39.828 241.924 39.7293 242.201 39.532C242.484 39.3293 242.7 39.0573 242.849 38.716C243.004 38.3747 243.081 37.9987 243.081 37.588V33.5H245.033V41.5H243.081V40.548C242.82 40.9 242.503 41.1853 242.129 41.404C241.761 41.6173 241.343 41.724 240.873 41.724C240.132 41.724 239.492 41.54 238.953 41.172C238.415 40.7987 237.996 40.3027 237.697 39.684C237.399 39.06 237.247 38.372 237.241 37.62ZM247.016 41.5V29.5H248.968V41.5H247.016ZM251 41.5V29.5H252.952V41.5H251Z" fill="#192252"/>
<rect x="467" y="10" width="72" height="72" rx="8" fill="#6345D5"/>
<path fill-rule="evenodd" clip-rule="evenodd" d="M495.217 29.334H510.782C516.451 29.334 519.651 32.549 519.667 38.2173V53.784C519.667 59.4507 516.451 62.6673 510.782 62.6673H495.217C489.549 62.6673 486.334 59.4507 486.334 53.784V38.2173C486.334 32.549 489.549 29.334 495.217 29.334ZM503.082 55.7673C503.801 55.7673 504.399 55.234 504.466 54.5173V37.534C504.532 37.0173 504.284 36.499 503.834 36.2173C503.366 35.934 502.799 35.934 502.351 36.2173C501.899 36.499 501.651 37.0173 501.699 37.534V54.5173C501.784 55.234 502.382 55.7673 503.082 55.7673ZM510.751 55.7673C511.451 55.7673 512.049 55.234 512.134 54.5173V49.0507C512.182 48.5157 511.934 48.0173 511.482 47.734C511.034 47.4507 510.467 47.4507 510.001 47.734C509.549 48.0173 509.301 48.5157 509.367 49.0507V54.5173C509.434 55.234 510.032 55.7673 510.751 55.7673ZM496.699 54.5173C496.632 55.234 496.034 55.7673 495.316 55.7673C494.599 55.7673 493.999 55.234 493.934 54.5173V43.0007C493.884 42.4823 494.132 41.9673 494.584 41.684C495.032 41.4007 495.601 41.4007 496.051 41.684C496.499 41.9673 496.751 42.4823 496.699 43.0007V54.5173Z" fill="white"/>
<rect x="50" y="97" width="261" height="95" rx="8" fill="url(#paint2_linear_14_171)"/>
<path d="M82.253 116.2V117.656H79.131V126H77.675V117.656H74.56V116.2H82.253ZM85.4942 126.182C84.8502 126.182 84.2622 126.016 83.7302 125.685C83.2029 125.354 82.7806 124.91 82.4632 124.355C82.1506 123.795 81.9942 123.177 81.9942 122.5C81.9942 121.987 82.0852 121.508 82.2672 121.065C82.4492 120.617 82.6989 120.225 83.0162 119.889C83.3382 119.548 83.7116 119.282 84.1362 119.091C84.5609 118.9 85.0136 118.804 85.4942 118.804C86.1382 118.804 86.7239 118.97 87.2512 119.301C87.7832 119.632 88.2056 120.078 88.5182 120.638C88.8356 121.198 88.9942 121.819 88.9942 122.5C88.9942 123.009 88.9032 123.485 88.7212 123.928C88.5392 124.371 88.2872 124.763 87.9652 125.104C87.6479 125.44 87.2769 125.704 86.8522 125.895C86.4322 126.086 85.9796 126.182 85.4942 126.182ZM85.4942 124.726C85.8816 124.726 86.2292 124.623 86.5372 124.418C86.8452 124.213 87.0879 123.942 87.2652 123.606C87.4472 123.265 87.5382 122.897 87.5382 122.5C87.5382 122.094 87.4449 121.721 87.2582 121.38C87.0762 121.039 86.8312 120.769 86.5232 120.568C86.2152 120.363 85.8722 120.26 85.4942 120.26C85.1116 120.26 84.7639 120.363 84.4512 120.568C84.1432 120.773 83.8982 121.046 83.7162 121.387C83.5389 121.728 83.4502 122.099 83.4502 122.5C83.4502 122.915 83.5436 123.291 83.7302 123.627C83.9169 123.963 84.1642 124.231 84.4722 124.432C84.7849 124.628 85.1256 124.726 85.4942 124.726ZM93.8075 120.456H92.3375L92.3305 126H90.8745L90.8815 120.456H89.7685V119H90.8815L90.8745 116.802H92.3305L92.3375 119H93.8075V120.456ZM100.379 119H101.835V126H100.372L100.316 124.985C100.11 125.344 99.8326 125.634 99.4826 125.853C99.1373 126.072 98.7266 126.182 98.2506 126.182C97.7326 126.182 97.2473 126.086 96.7946 125.895C96.3466 125.699 95.95 125.428 95.6046 125.083C95.264 124.738 94.9956 124.341 94.7996 123.893C94.6083 123.44 94.5126 122.955 94.5126 122.437C94.5126 121.938 94.606 121.469 94.7926 121.03C94.9793 120.587 95.2383 120.199 95.5696 119.868C95.901 119.537 96.2836 119.278 96.7176 119.091C97.1563 118.9 97.6253 118.804 98.1246 118.804C98.6333 118.804 99.0813 118.921 99.4686 119.154C99.8606 119.383 100.183 119.677 100.435 120.036L100.379 119ZM98.2856 124.775C98.7056 124.775 99.0673 124.67 99.3706 124.46C99.6786 124.25 99.9096 123.968 100.064 123.613C100.222 123.258 100.29 122.866 100.267 122.437C100.239 122.026 100.129 121.653 99.9376 121.317C99.751 120.981 99.5013 120.715 99.1886 120.519C98.876 120.318 98.5213 120.218 98.1246 120.218C97.7093 120.218 97.3336 120.323 96.9976 120.533C96.6663 120.743 96.4096 121.025 96.2276 121.38C96.0456 121.735 95.9663 122.129 95.9896 122.563C96.0176 122.969 96.139 123.34 96.3536 123.676C96.573 124.012 96.8506 124.28 97.1866 124.481C97.5273 124.677 97.8936 124.775 98.2856 124.775ZM103.594 126V115.5H105.043V126H103.594ZM113.451 116.2H115.152L118.715 126H117.175L116.496 124.138H112.107L111.435 126H109.888L113.451 116.2ZM112.646 122.682H115.957L114.298 118.132L112.646 122.682ZM119.89 126V119H121.346V119.847C121.57 119.572 121.806 119.348 122.053 119.175C122.305 118.998 122.604 118.909 122.949 118.909C123.463 118.909 123.918 119.026 124.314 119.259C124.716 119.488 125.052 119.807 125.322 120.218C125.593 119.803 125.929 119.481 126.33 119.252C126.736 119.023 127.189 118.909 127.688 118.909C128.29 118.909 128.82 119.061 129.277 119.364C129.735 119.667 130.094 120.071 130.355 120.575C130.617 121.074 130.747 121.625 130.747 122.227V126H129.291V122.227C129.291 121.882 129.224 121.569 129.088 121.289C128.958 121.009 128.773 120.785 128.535 120.617C128.297 120.449 128.015 120.365 127.688 120.365C127.371 120.365 127.086 120.449 126.834 120.617C126.587 120.785 126.393 121.009 126.253 121.289C126.118 121.569 126.05 121.882 126.05 122.227V126H124.594V122.227C124.594 121.882 124.524 121.569 124.384 121.289C124.244 121.009 124.051 120.785 123.803 120.617C123.556 120.449 123.271 120.365 122.949 120.365C122.641 120.365 122.366 120.454 122.123 120.631C121.885 120.808 121.696 121.042 121.556 121.331C121.416 121.62 121.346 121.938 121.346 122.283V126H119.89ZM131.963 126V119H133.419V119.847C133.643 119.572 133.878 119.348 134.126 119.175C134.378 118.998 134.676 118.909 135.022 118.909C135.535 118.909 135.99 119.026 136.387 119.259C136.788 119.488 137.124 119.807 137.395 120.218C137.665 119.803 138.001 119.481 138.403 119.252C138.809 119.023 139.261 118.909 139.761 118.909C140.363 118.909 140.892 119.061 141.35 119.364C141.807 119.667 142.166 120.071 142.428 120.575C142.689 121.074 142.82 121.625 142.82 122.227V126H141.364V122.227C141.364 121.882 141.296 121.569 141.161 121.289C141.03 121.009 140.846 120.785 140.608 120.617C140.37 120.449 140.087 120.365 139.761 120.365C139.443 120.365 139.159 120.449 138.907 120.617C138.659 120.785 138.466 121.009 138.326 121.289C138.19 121.569 138.123 121.882 138.123 122.227V126H136.667V122.227C136.667 121.882 136.597 121.569 136.457 121.289C136.317 121.009 136.123 120.785 135.876 120.617C135.628 120.449 135.344 120.365 135.022 120.365C134.714 120.365 134.438 120.454 134.196 120.631C133.958 120.808 133.769 121.042 133.629 121.331C133.489 121.62 133.419 121.938 133.419 122.283V126H131.963ZM147.113 126.182C146.469 126.182 145.881 126.016 145.349 125.685C144.822 125.354 144.4 124.91 144.082 124.355C143.77 123.795 143.613 123.177 143.613 122.5C143.613 121.987 143.704 121.508 143.886 121.065C144.068 120.617 144.318 120.225 144.635 119.889C144.957 119.548 145.331 119.282 145.755 119.091C146.18 118.9 146.633 118.804 147.113 118.804C147.757 118.804 148.343 118.97 148.87 119.301C149.402 119.632 149.825 120.078 150.137 120.638C150.455 121.198 150.613 121.819 150.613 122.5C150.613 123.009 150.522 123.485 150.34 123.928C150.158 124.371 149.906 124.763 149.584 125.104C149.267 125.44 148.896 125.704 148.471 125.895C148.051 126.086 147.599 126.182 147.113 126.182ZM147.113 124.726C147.501 124.726 147.848 124.623 148.156 124.418C148.464 124.213 148.707 123.942 148.884 123.606C149.066 123.265 149.157 122.897 149.157 122.5C149.157 122.094 149.064 121.721 148.877 121.38C148.695 121.039 148.45 120.769 148.142 120.568C147.834 120.363 147.491 120.26 147.113 120.26C146.731 120.26 146.383 120.363 146.07 120.568C145.762 120.773 145.517 121.046 145.335 121.387C145.158 121.728 145.069 122.099 145.069 122.5C145.069 122.915 145.163 123.291 145.349 123.627C145.536 123.963 145.783 124.231 146.091 124.432C146.404 124.628 146.745 124.726 147.113 124.726ZM151.608 122.654V119H153.064V122.626C153.064 123.023 153.145 123.384 153.309 123.711C153.477 124.033 153.703 124.292 153.988 124.488C154.277 124.679 154.606 124.775 154.975 124.775C155.334 124.775 155.649 124.679 155.92 124.488C156.195 124.292 156.407 124.033 156.557 123.711C156.711 123.384 156.788 123.023 156.788 122.626V119H158.244V126H156.788V125.048C156.545 125.398 156.251 125.676 155.906 125.881C155.56 126.086 155.171 126.189 154.737 126.189C154.111 126.189 153.563 126.03 153.092 125.713C152.625 125.391 152.263 124.962 152.007 124.425C151.75 123.888 151.617 123.298 151.608 122.654ZM166.416 122.332V126H164.96V122.36C164.96 121.963 164.876 121.604 164.708 121.282C164.545 120.955 164.318 120.696 164.029 120.505C163.744 120.309 163.42 120.211 163.056 120.211C162.692 120.211 162.372 120.309 162.097 120.505C161.826 120.696 161.614 120.955 161.46 121.282C161.311 121.604 161.236 121.963 161.236 122.36V126H159.78V119H161.236V119.945C161.479 119.59 161.773 119.313 162.118 119.112C162.463 118.907 162.853 118.804 163.287 118.804C163.917 118.804 164.463 118.965 164.925 119.287C165.392 119.609 165.756 120.036 166.017 120.568C166.278 121.1 166.411 121.688 166.416 122.332ZM171.655 120.456H170.185L170.178 126H168.722L168.729 120.456H167.616V119H168.729L168.722 116.802H170.178L170.185 119H171.655V120.456Z" fill="#848FAC"/>
<path d="M82.456 152.494C81.7933 152.485 81.1633 152.592 80.566 152.816C79.978 153.031 79.4973 153.325 79.124 153.698C78.7507 154.071 78.564 154.501 78.564 154.986C78.564 155.611 78.7367 156.083 79.082 156.4C79.4367 156.717 79.908 156.951 80.496 157.1C81.084 157.24 81.7373 157.371 82.456 157.492C83.7627 157.697 84.9713 158.043 86.082 158.528C87.1927 159.013 88.084 159.662 88.756 160.474C89.428 161.277 89.764 162.261 89.764 163.428C89.764 164.492 89.4887 165.439 88.938 166.27C88.3873 167.091 87.6453 167.763 86.712 168.286C85.788 168.809 84.7613 169.14 83.632 169.28V172.136H81.294V169.28C80.3513 169.168 79.4647 168.93 78.634 168.566C77.8033 168.202 77.08 167.726 76.464 167.138C75.8573 166.55 75.4093 165.864 75.12 165.08L78.326 163.904C78.4567 164.277 78.7227 164.618 79.124 164.926C79.5253 165.234 80.0153 165.481 80.594 165.668C81.1727 165.855 81.7933 165.948 82.456 165.948C83.1373 165.948 83.772 165.845 84.36 165.64C84.9573 165.425 85.438 165.131 85.802 164.758C86.166 164.375 86.348 163.932 86.348 163.428C86.348 162.915 86.1567 162.495 85.774 162.168C85.3913 161.832 84.9013 161.566 84.304 161.37C83.7067 161.174 83.0907 161.025 82.456 160.922C81.0653 160.707 79.8193 160.376 78.718 159.928C77.6167 159.48 76.744 158.859 76.1 158.066C75.4653 157.273 75.148 156.246 75.148 154.986C75.148 153.922 75.4233 152.975 75.974 152.144C76.534 151.313 77.276 150.641 78.2 150.128C79.1333 149.605 80.1647 149.274 81.294 149.134V146.264H83.632V149.134C84.556 149.246 85.4333 149.484 86.264 149.848C87.0947 150.212 87.818 150.693 88.434 151.29C89.0593 151.878 89.5167 152.569 89.806 153.362L86.586 154.524C86.4553 154.151 86.1893 153.81 85.788 153.502C85.3867 153.194 84.8967 152.951 84.318 152.774C83.7393 152.587 83.1187 152.494 82.456 152.494Z" fill="#848FAC"/>
<path d="M106.588 169.364C105.337 169.364 104.189 169.051 103.144 168.426C102.099 167.801 101.263 166.965 100.638 165.92C100.013 164.875 99.7 163.717 99.7 162.448C99.7 161.795 99.7747 161.188 99.924 160.628C100.083 160.068 100.325 159.503 100.652 158.934L106.14 149.4H110.102L106.42 155.77C107.176 155.714 107.904 155.779 108.604 155.966C109.304 156.153 109.953 156.447 110.55 156.848C111.147 157.249 111.67 157.735 112.118 158.304C112.566 158.873 112.911 159.508 113.154 160.208C113.406 160.908 113.532 161.655 113.532 162.448C113.532 163.4 113.35 164.291 112.986 165.122C112.631 165.953 112.137 166.69 111.502 167.334C110.867 167.969 110.13 168.468 109.29 168.832C108.45 169.187 107.549 169.364 106.588 169.364ZM106.588 165.948C107.269 165.948 107.876 165.785 108.408 165.458C108.94 165.122 109.355 164.688 109.654 164.156C109.962 163.624 110.116 163.059 110.116 162.462C110.116 161.818 109.962 161.23 109.654 160.698C109.346 160.166 108.926 159.741 108.394 159.424C107.871 159.107 107.279 158.948 106.616 158.948C105.935 158.948 105.328 159.116 104.796 159.452C104.273 159.779 103.863 160.208 103.564 160.74C103.265 161.272 103.116 161.846 103.116 162.462C103.116 163.125 103.279 163.717 103.606 164.24C103.933 164.763 104.357 165.178 104.88 165.486C105.412 165.794 105.981 165.948 106.588 165.948ZM122.837 169.364C121.699 169.364 120.663 169.103 119.729 168.58C118.796 168.048 117.989 167.315 117.307 166.382C116.635 165.449 116.117 164.371 115.753 163.148C115.389 161.916 115.207 160.6 115.207 159.2C115.207 157.8 115.389 156.489 115.753 155.266C116.117 154.034 116.635 152.951 117.307 152.018C117.989 151.085 118.796 150.357 119.729 149.834C120.663 149.302 121.699 149.036 122.837 149.036C123.976 149.036 125.012 149.302 125.945 149.834C126.879 150.357 127.677 151.085 128.339 152.018C129.011 152.951 129.529 154.034 129.893 155.266C130.267 156.489 130.453 157.8 130.453 159.2C130.453 160.6 130.267 161.916 129.893 163.148C129.529 164.371 129.011 165.449 128.339 166.382C127.677 167.315 126.879 168.048 125.945 168.58C125.012 169.103 123.976 169.364 122.837 169.364ZM122.837 165.948C123.836 165.948 124.662 165.631 125.315 164.996C125.969 164.361 126.454 163.531 126.771 162.504C127.089 161.477 127.247 160.376 127.247 159.2C127.247 157.959 127.079 156.829 126.743 155.812C126.407 154.785 125.913 153.969 125.259 153.362C124.606 152.755 123.799 152.452 122.837 152.452C122.081 152.452 121.423 152.639 120.863 153.012C120.313 153.376 119.855 153.875 119.491 154.51C119.127 155.145 118.857 155.868 118.679 156.68C118.502 157.483 118.413 158.323 118.413 159.2C118.413 160.367 118.572 161.468 118.889 162.504C119.216 163.531 119.706 164.361 120.359 164.996C121.022 165.631 121.848 165.948 122.837 165.948ZM139.134 169.364C137.995 169.364 136.959 169.103 136.026 168.58C135.093 168.048 134.285 167.315 133.604 166.382C132.932 165.449 132.414 164.371 132.05 163.148C131.686 161.916 131.504 160.6 131.504 159.2C131.504 157.8 131.686 156.489 132.05 155.266C132.414 154.034 132.932 152.951 133.604 152.018C134.285 151.085 135.093 150.357 136.026 149.834C136.959 149.302 137.995 149.036 139.134 149.036C140.273 149.036 141.309 149.302 142.242 149.834C143.175 150.357 143.973 151.085 144.636 152.018C145.308 152.951 145.826 154.034 146.19 155.266C146.563 156.489 146.75 157.8 146.75 159.2C146.75 160.6 146.563 161.916 146.19 163.148C145.826 164.371 145.308 165.449 144.636 166.382C143.973 167.315 143.175 168.048 142.242 168.58C141.309 169.103 140.273 169.364 139.134 169.364ZM139.134 165.948C140.133 165.948 140.959 165.631 141.612 164.996C142.265 164.361 142.751 163.531 143.068 162.504C143.385 161.477 143.544 160.376 143.544 159.2C143.544 157.959 143.376 156.829 143.04 155.812C142.704 154.785 142.209 153.969 141.556 153.362C140.903 152.755 140.095 152.452 139.134 152.452C138.378 152.452 137.72 152.639 137.16 153.012C136.609 153.376 136.152 153.875 135.788 154.51C135.424 155.145 135.153 155.868 134.976 156.68C134.799 157.483 134.71 158.323 134.71 159.2C134.71 160.367 134.869 161.468 135.186 162.504C135.513 163.531 136.003 164.361 136.656 164.996C137.319 165.631 138.145 165.948 139.134 165.948ZM149.55 149.4H151.51V173.228H149.55V149.4Z" fill="#192252"/>
<path d="M163.065 169.364C162.58 169.364 162.165 169.196 161.819 168.86C161.483 168.515 161.315 168.095 161.315 167.6C161.315 167.124 161.483 166.713 161.819 166.368C162.165 166.023 162.58 165.85 163.065 165.85C163.551 165.85 163.966 166.023 164.311 166.368C164.657 166.713 164.829 167.124 164.829 167.6C164.829 168.095 164.657 168.515 164.311 168.86C163.966 169.196 163.551 169.364 163.065 169.364ZM174.982 169.364C173.843 169.364 172.807 169.103 171.874 168.58C170.94 168.048 170.133 167.315 169.452 166.382C168.78 165.449 168.262 164.371 167.898 163.148C167.534 161.916 167.352 160.6 167.352 159.2C167.352 157.8 167.534 156.489 167.898 155.266C168.262 154.034 168.78 152.951 169.452 152.018C170.133 151.085 170.94 150.357 171.874 149.834C172.807 149.302 173.843 149.036 174.982 149.036C176.12 149.036 177.156 149.302 178.09 149.834C179.023 150.357 179.821 151.085 180.484 152.018C181.156 152.951 181.674 154.034 182.038 155.266C182.411 156.489 182.598 157.8 182.598 159.2C182.598 160.6 182.411 161.916 182.038 163.148C181.674 164.371 181.156 165.449 180.484 166.382C179.821 167.315 179.023 168.048 178.09 168.58C177.156 169.103 176.12 169.364 174.982 169.364ZM174.982 165.948C175.98 165.948 176.806 165.631 177.46 164.996C178.113 164.361 178.598 163.531 178.916 162.504C179.233 161.477 179.392 160.376 179.392 159.2C179.392 157.959 179.224 156.829 178.888 155.812C178.552 154.785 178.057 153.969 177.404 153.362C176.75 152.755 175.943 152.452 174.982 152.452C174.226 152.452 173.568 152.639 173.008 153.012C172.457 153.376 172 153.875 171.636 154.51C171.272 155.145 171.001 155.868 170.824 156.68C170.646 157.483 170.558 158.323 170.558 159.2C170.558 160.367 170.716 161.468 171.034 162.504C171.36 163.531 171.85 164.361 172.504 164.996C173.166 165.631 173.992 165.948 174.982 165.948ZM191.279 169.364C190.14 169.364 189.104 169.103 188.171 168.58C187.237 168.048 186.43 167.315 185.749 166.382C185.077 165.449 184.559 164.371 184.195 163.148C183.831 161.916 183.649 160.6 183.649 159.2C183.649 157.8 183.831 156.489 184.195 155.266C184.559 154.034 185.077 152.951 185.749 152.018C186.43 151.085 187.237 150.357 188.171 149.834C189.104 149.302 190.14 149.036 191.279 149.036C192.417 149.036 193.453 149.302 194.387 149.834C195.32 150.357 196.118 151.085 196.781 152.018C197.453 152.951 197.971 154.034 198.335 155.266C198.708 156.489 198.895 157.8 198.895 159.2C198.895 160.6 198.708 161.916 198.335 163.148C197.971 164.371 197.453 165.449 196.781 166.382C196.118 167.315 195.32 168.048 194.387 168.58C193.453 169.103 192.417 169.364 191.279 169.364ZM191.279 165.948C192.277 165.948 193.103 165.631 193.757 164.996C194.41 164.361 194.895 163.531 195.213 162.504C195.53 161.477 195.689 160.376 195.689 159.2C195.689 157.959 195.521 156.829 195.185 155.812C194.849 154.785 194.354 153.969 193.701 153.362C193.047 152.755 192.24 152.452 191.279 152.452C190.523 152.452 189.865 152.639 189.305 153.012C188.754 153.376 188.297 153.875 187.933 154.51C187.569 155.145 187.298 155.868 187.121 156.68C186.943 157.483 186.855 158.323 186.855 159.2C186.855 160.367 187.013 161.468 187.331 162.504C187.657 163.531 188.147 164.361 188.801 164.996C189.463 165.631 190.289 165.948 191.279 165.948Z" fill="#A9B4CD"/>
<g clip-path="url(#clip1_14_171)">
<path d="M275 170.25C268.775 170.25 263.75 165.225 263.75 159L286.25 159C286.25 165.225 281.225 170.25 275 170.25Z" fill="#F9F9F9"/>
<path d="M275 147.75C281.225 147.75 286.25 152.775 286.25 159L263.75 159C263.75 152.775 268.775 147.75 275 147.75Z" fill="#ED4C5C"/>
</g>
<g clip-path="url(#clip2_14_171)">
<path d="M252.25 169.612V164.438L248.388 167.287C249.475 168.3 250.788 169.087 252.25 169.612Z" fill="#2A5F9E"/>
<path d="M259.75 169.613C261.212 169.088 262.525 168.3 263.612 167.288L259.75 164.4V169.613Z" fill="#2A5F9E"/>
<path d="M245.388 162.75C245.5 163.125 245.65 163.463 245.838 163.838L247.3 162.75H245.388Z" fill="#2A5F9E"/>
<path d="M264.7 162.75L266.163 163.838C266.313 163.5 266.463 163.125 266.613 162.75H264.7Z" fill="#2A5F9E"/>
<path d="M252.812 161.25H244.975C245.087 161.775 245.237 162.263 245.387 162.75H247.3L245.837 163.838C246.137 164.475 246.475 165.037 246.887 165.6L250.75 162.75H252.25V163.5L247.862 166.725L248.387 167.25L252.25 164.438V169.613C252.737 169.8 253.225 169.913 253.75 170.025V161.25H252.812Z" fill="white"/>
<path d="M267.025 161.25H258.25V170.025C258.775 169.913 259.262 169.763 259.75 169.613V164.438L263.612 167.25C264.137 166.763 264.587 166.238 265.037 165.675L261.025 162.75H263.575L265.862 164.438C265.975 164.25 266.087 164.025 266.162 163.838L264.7 162.75H266.612C266.762 162.263 266.912 161.775 267.025 161.25Z" fill="white"/>
<path d="M246.888 165.6C247.188 166.012 247.488 166.387 247.825 166.762L252.25 163.537V162.787H250.75L246.888 165.6Z" fill="#ED4C5C"/>
<path d="M261.062 162.75L265.075 165.675C265.225 165.487 265.337 165.3 265.487 165.112C265.525 165.075 265.525 165.037 265.562 165.037C265.675 164.85 265.825 164.625 265.938 164.437L263.575 162.75H261.062Z" fill="#ED4C5C"/>
<path d="M259.75 148.387V153.562L263.612 150.712C262.525 149.699 261.212 148.912 259.75 148.387Z" fill="#2A5F9E"/>
<path d="M252.25 148.387C250.788 148.912 249.475 149.699 248.388 150.712L252.25 153.599V148.387Z" fill="#2A5F9E"/>
<path d="M266.613 155.25C266.5 154.875 266.35 154.537 266.163 154.162L264.7 155.25H266.613Z" fill="#2A5F9E"/>
<path d="M247.3 155.25L245.838 154.162C245.688 154.537 245.538 154.875 245.388 155.25H247.3Z" fill="#2A5F9E"/>
<path d="M259.187 156.75H266.987C266.875 156.225 266.725 155.737 266.575 155.25H264.662L266.125 154.162C265.825 153.525 265.487 152.962 265.075 152.4L261.25 155.25H259.75V154.5L264.137 151.275L263.612 150.75L259.75 153.562V148.387C259.262 148.2 258.775 148.087 258.25 147.975V156.75H259.187Z" fill="white"/>
<path d="M244.975 156.75H253.75V147.975C253.225 148.087 252.737 148.237 252.25 148.387V153.562L248.387 150.75C247.862 151.237 247.412 151.762 246.962 152.325L250.975 155.25H248.425L246.137 153.562C246.025 153.75 245.912 153.975 245.837 154.162L247.3 155.25H245.387C245.237 155.737 245.087 156.225 244.975 156.75Z" fill="white"/>
<path d="M265.112 152.401C264.812 151.988 264.512 151.613 264.175 151.238L259.75 154.463V155.213H261.25L265.112 152.401Z" fill="#ED4C5C"/>
<path d="M250.937 155.249L246.962 152.324C246.812 152.512 246.7 152.699 246.55 152.887C246.512 152.924 246.512 152.962 246.475 152.962C246.362 153.149 246.212 153.374 246.1 153.562L248.387 155.249H250.937Z" fill="#ED4C5C"/>
<path d="M267.025 156.75H258.25V147.975C257.538 147.825 256.788 147.75 256 147.75C255.212 147.75 254.462 147.825 253.75 147.975V156.75H244.975C244.825 157.462 244.75 158.212 244.75 159C244.75 159.788 244.825 160.538 244.975 161.25H253.75V170.025C254.462 170.175 255.212 170.25 256 170.25C256.788 170.25 257.538 170.175 258.25 170.025V161.25H267.025C267.175 160.538 267.25 159.788 267.25 159C267.25 158.212 267.175 157.462 267.025 156.75Z" fill="#ED4C5C"/>
</g>
<defs>
<linearGradient id="paint0_linear_14_171" x1="423.534" y1="24" x2="478.687" y2="59.7265" gradientUnits="userSpaceOnUse">
<stop stop-color="#DDD9D6"/>
<stop offset="0.212761" stop-color="#8A868C"/>
<stop offset="0.548384" stop-color="#F2F3F3" stop-opacity="0.8"/>
<stop offset="0.914316" stop-color="#807C80"/>
<stop offset="1" stop-color="#A6A8AB"/>
</linearGradient>
<linearGradient id="paint1_linear_14_171" x1="509.5" y1="97.5" x2="663.5" y2="228" gradientUnits="userSpaceOnUse">
<stop stop-color="white" stop-opacity="0.8"/>
<stop offset="1" stop-color="white" stop-opacity="0.4"/>
</linearGradient>
<linearGradient id="paint2_linear_14_171" x1="84.5" y1="192" x2="299.5" y2="97" gradientUnits="userSpaceOnUse">
<stop stop-color="white" stop-opacity="0.4"/>
<stop offset="1" stop-color="white" stop-opacity="0.72"/>
</linearGradient>
<clipPath id="clip0_14_171">
<rect x="480" width="311" height="185" rx="18" transform="rotate(90 480 0)" fill="white"/>
</clipPath>
<clipPath id="clip1_14_171">
<rect width="24" height="24" fill="white" transform="translate(287 171) rotate(-180)"/>
</clipPath>
<clipPath id="clip2_14_171">
<rect width="24" height="24" fill="white" transform="translate(244 147)"/>
</clipPath>
</defs>
</svg>
