<svg width="30" height="24" viewBox="0 0 30 24" fill="none" xmlns="http://www.w3.org/2000/svg">
<path d="M30.0001 11.9648V19.3818C30.0001 21.9007 23.3024 23.9999 15.0699 23.9999C6.83731 23.9999 0.279199 21.9708 0.279199 19.4519V18.6123L0.139648 12.7347H0.209356C1.32561 14.9038 7.46522 16.5831 14.8605 16.5831C22.2558 16.5831 29.8606 14.484 29.8606 11.965H30.0001V11.9648Z" fill="#CD3C04"/>
<path d="M0.209254 12.7342L0.139546 11.1948L0 4.8975C0.488353 7.27647 6.97676 9.16567 14.8605 9.16567C22.7443 9.16567 29.721 7.13652 29.9303 4.6875H30V11.9645H29.8605C29.8605 14.4834 23.0929 16.5826 14.8604 16.5826C6.62796 16.5825 1.32564 14.9033 0.209254 12.7342Z" fill="#FA4D0A"/>
<path d="M29.9303 4.54795V4.6879C29.721 7.13692 22.9535 9.16607 14.8605 9.16607C6.7675 9.16607 0.488353 7.27688 0 4.8979V4.54808C0 4.40813 4.21857e-07 4.26817 0.0697079 4.12821C0.837158 1.81915 7.04647 6.62931e-09 14.6511 6.62931e-09H14.8604C23.0931 -0.000133922 29.9303 2.02902 29.9303 4.54795Z" fill="#FC9770"/>
</svg>
