<svg width="130" height="111" viewBox="0 0 130 111" fill="none" xmlns="http://www.w3.org/2000/svg">
<path d="M8.976 105.312C7.808 105.312 6.72 105.084 5.712 104.628C4.712 104.172 3.84 103.544 3.096 102.744C2.352 101.936 1.768 101.008 1.344 99.96C0.928 98.904 0.72 97.776 0.72 96.576C0.72 95.312 0.944 94.152 1.392 93.096C1.848 92.04 2.468 91.124 3.252 90.348C4.036 89.572 4.924 88.972 5.916 88.548C6.916 88.124 7.956 87.912 9.036 87.912C10.244 87.912 11.416 88.196 12.552 88.764C13.696 89.324 14.704 90.192 15.576 91.368L12.96 92.772C12.424 92.116 11.808 91.628 11.112 91.308C10.424 90.98 9.72 90.816 9 90.816C8.296 90.816 7.62 90.96 6.972 91.248C6.332 91.536 5.76 91.944 5.256 92.472C4.76 92.992 4.368 93.608 4.08 94.32C3.792 95.024 3.648 95.796 3.648 96.636C3.648 97.428 3.788 98.176 4.068 98.88C4.348 99.576 4.732 100.188 5.22 100.716C5.716 101.236 6.288 101.644 6.936 101.94C7.584 102.236 8.28 102.384 9.024 102.384C9.52 102.384 10.004 102.308 10.476 102.156C10.956 101.996 11.404 101.768 11.82 101.472C12.244 101.176 12.62 100.816 12.948 100.392C13.284 99.968 13.564 99.488 13.788 98.952H10.728V96.396H17.232C17.264 97.62 17.072 98.768 16.656 99.84C16.24 100.912 15.652 101.86 14.892 102.684C14.132 103.508 13.248 104.152 12.24 104.616C11.232 105.08 10.144 105.312 8.976 105.312ZM24.2981 105.312C23.1941 105.312 22.1861 105.028 21.2741 104.46C20.3701 103.892 19.6461 103.128 19.1021 102.168C18.5661 101.208 18.2981 100.148 18.2981 98.988C18.2981 98.116 18.4541 97.3 18.7661 96.54C19.0781 95.772 19.5061 95.1 20.0501 94.524C20.6021 93.94 21.2421 93.484 21.9701 93.156C22.6981 92.828 23.4741 92.664 24.2981 92.664C25.2341 92.664 26.0901 92.864 26.8661 93.264C27.6501 93.656 28.3141 94.196 28.8581 94.884C29.4021 95.572 29.7981 96.356 30.0461 97.236C30.2941 98.116 30.3501 99.036 30.2141 99.996H21.4421C21.5541 100.444 21.7381 100.848 21.9941 101.208C22.2501 101.56 22.5741 101.844 22.9661 102.06C23.3581 102.268 23.8021 102.376 24.2981 102.384C24.8101 102.392 25.2741 102.272 25.6901 102.024C26.1141 101.768 26.4661 101.424 26.7461 100.992L29.7341 101.688C29.2461 102.752 28.5181 103.624 27.5501 104.304C26.5821 104.976 25.4981 105.312 24.2981 105.312ZM21.3461 97.8H27.2501C27.1621 97.32 26.9741 96.888 26.6861 96.504C26.4061 96.112 26.0581 95.8 25.6421 95.568C25.2261 95.336 24.7781 95.22 24.2981 95.22C23.8181 95.22 23.3741 95.336 22.9661 95.568C22.5581 95.792 22.2101 96.1 21.9221 96.492C21.6421 96.876 21.4501 97.312 21.3461 97.8ZM38.7392 95.928H36.4112V105H33.4832V95.928H31.7072V93H33.4832V89.232H36.4112V93H38.7392V95.928ZM52.7224 105.312C51.7944 105.312 50.9024 105.168 50.0464 104.88C49.1984 104.584 48.4544 104.164 47.8144 103.62C47.1744 103.068 46.7144 102.408 46.4344 101.64L49.1824 100.632C49.2944 100.952 49.5224 101.244 49.8664 101.508C50.2104 101.772 50.6304 101.984 51.1264 102.144C51.6224 102.304 52.1544 102.384 52.7224 102.384C53.3064 102.384 53.8504 102.296 54.3544 102.12C54.8664 101.936 55.2784 101.684 55.5904 101.364C55.9024 101.036 56.0584 100.656 56.0584 100.224C56.0584 99.784 55.8944 99.424 55.5664 99.144C55.2384 98.856 54.8184 98.628 54.3064 98.46C53.7944 98.292 53.2664 98.164 52.7224 98.076C51.5304 97.892 50.4624 97.608 49.5184 97.224C48.5744 96.84 47.8264 96.308 47.2744 95.628C46.7304 94.948 46.4584 94.068 46.4584 92.988C46.4584 91.972 46.7504 91.084 47.3344 90.324C47.9184 89.564 48.6864 88.972 49.6384 88.548C50.5904 88.124 51.6184 87.912 52.7224 87.912C53.6424 87.912 54.5304 88.056 55.3864 88.344C56.2424 88.632 56.9904 89.052 57.6304 89.604C58.2784 90.156 58.7424 90.82 59.0224 91.596L56.2624 92.592C56.1504 92.272 55.9224 91.98 55.5784 91.716C55.2344 91.452 54.8144 91.244 54.3184 91.092C53.8224 90.932 53.2904 90.852 52.7224 90.852C52.1544 90.844 51.6144 90.936 51.1024 91.128C50.5984 91.312 50.1864 91.564 49.8664 91.884C49.5464 92.204 49.3864 92.572 49.3864 92.988C49.3864 93.524 49.5344 93.928 49.8304 94.2C50.1344 94.472 50.5384 94.672 51.0424 94.8C51.5464 94.92 52.1064 95.032 52.7224 95.136C53.8424 95.312 54.8784 95.608 55.8304 96.024C56.7824 96.44 57.5464 96.996 58.1224 97.692C58.6984 98.38 58.9864 99.224 58.9864 100.224C58.9864 101.24 58.6984 102.132 58.1224 102.9C57.5464 103.66 56.7824 104.252 55.8304 104.676C54.8784 105.1 53.8424 105.312 52.7224 105.312ZM67.8954 95.928H65.5674V105H62.6394V95.928H60.8634V93H62.6394V89.232H65.5674V93H67.8954V95.928ZM78.9054 93H81.8334V105H78.8934L78.7734 103.512C78.4374 104.048 77.9974 104.484 77.4534 104.82C76.9174 105.148 76.2854 105.312 75.5574 105.312C74.6694 105.312 73.8374 105.144 73.0614 104.808C72.2854 104.472 71.6014 104.008 71.0094 103.416C70.4174 102.824 69.9574 102.14 69.6294 101.364C69.3014 100.588 69.1374 99.756 69.1374 98.868C69.1374 98.012 69.2934 97.208 69.6054 96.456C69.9174 95.704 70.3574 95.044 70.9254 94.476C71.4934 93.908 72.1494 93.464 72.8934 93.144C73.6374 92.824 74.4374 92.664 75.2934 92.664C76.0934 92.664 76.8054 92.84 77.4294 93.192C78.0614 93.544 78.5974 93.992 79.0374 94.536L78.9054 93ZM75.6414 102.492C76.2814 102.492 76.8374 102.328 77.3094 102C77.7814 101.672 78.1374 101.236 78.3774 100.692C78.6254 100.14 78.7254 99.532 78.6774 98.868C78.6214 98.244 78.4374 97.68 78.1254 97.176C77.8134 96.664 77.4134 96.256 76.9254 95.952C76.4374 95.648 75.8894 95.496 75.2814 95.496C74.6494 95.496 74.0814 95.66 73.5774 95.988C73.0814 96.316 72.6974 96.756 72.4254 97.308C72.1534 97.852 72.0454 98.46 72.1014 99.132C72.1654 99.748 72.3654 100.312 72.7014 100.824C73.0374 101.328 73.4614 101.732 73.9734 102.036C74.4934 102.34 75.0494 102.492 75.6414 102.492ZM92.0094 95.976C91.7934 95.832 91.5574 95.716 91.3014 95.628C91.0534 95.54 90.7774 95.496 90.4734 95.496C89.8894 95.496 89.3854 95.648 88.9614 95.952C88.5454 96.256 88.2254 96.664 88.0014 97.176C87.7774 97.68 87.6654 98.24 87.6654 98.856V105H84.7134V93H87.6414V94.416C88.0414 93.888 88.5174 93.468 89.0694 93.156C89.6294 92.844 90.2614 92.688 90.9654 92.688C91.2374 92.688 91.4974 92.696 91.7454 92.712C92.0014 92.728 92.2454 92.772 92.4774 92.844L92.0094 95.976ZM101.317 95.928H98.9893V105H96.0613V95.928H94.2853V93H96.0613V89.232H98.9893V93H101.317V95.928ZM108.415 105.312C107.311 105.312 106.303 105.028 105.391 104.46C104.487 103.892 103.763 103.128 103.219 102.168C102.683 101.208 102.415 100.148 102.415 98.988C102.415 98.116 102.571 97.3 102.883 96.54C103.195 95.772 103.623 95.1 104.167 94.524C104.719 93.94 105.359 93.484 106.087 93.156C106.815 92.828 107.591 92.664 108.415 92.664C109.351 92.664 110.207 92.864 110.983 93.264C111.767 93.656 112.431 94.196 112.975 94.884C113.519 95.572 113.915 96.356 114.163 97.236C114.411 98.116 114.467 99.036 114.331 99.996H105.559C105.671 100.444 105.855 100.848 106.111 101.208C106.367 101.56 106.691 101.844 107.083 102.06C107.475 102.268 107.919 102.376 108.415 102.384C108.927 102.392 109.391 102.272 109.807 102.024C110.231 101.768 110.583 101.424 110.863 100.992L113.851 101.688C113.363 102.752 112.635 103.624 111.667 104.304C110.699 104.976 109.615 105.312 108.415 105.312ZM105.463 97.8H111.367C111.279 97.32 111.091 96.888 110.803 96.504C110.523 96.112 110.175 95.8 109.759 95.568C109.343 95.336 108.895 95.22 108.415 95.22C107.935 95.22 107.491 95.336 107.083 95.568C106.675 95.792 106.327 96.1 106.039 96.492C105.759 96.876 105.567 97.312 105.463 97.8ZM125.403 87H128.331V105H125.403V103.5C125.019 104.036 124.535 104.472 123.951 104.808C123.367 105.144 122.691 105.312 121.923 105.312C121.051 105.312 120.235 105.148 119.475 104.82C118.715 104.492 118.043 104.04 117.459 103.464C116.883 102.88 116.431 102.208 116.103 101.448C115.775 100.688 115.611 99.872 115.611 99C115.611 98.128 115.775 97.312 116.103 96.552C116.431 95.792 116.883 95.124 117.459 94.548C118.043 93.964 118.715 93.508 119.475 93.18C120.235 92.852 121.051 92.688 121.923 92.688C122.691 92.688 123.367 92.856 123.951 93.192C124.535 93.52 125.019 93.956 125.403 94.5V87ZM121.959 102.492C122.583 102.492 123.135 102.336 123.615 102.024C124.095 101.712 124.471 101.292 124.743 100.764C125.015 100.228 125.151 99.64 125.151 99C125.151 98.352 125.015 97.764 124.743 97.236C124.471 96.7 124.091 96.276 123.603 95.964C123.123 95.652 122.575 95.496 121.959 95.496C121.343 95.496 120.783 95.656 120.279 95.976C119.775 96.288 119.371 96.708 119.067 97.236C118.763 97.764 118.611 98.352 118.611 99C118.611 99.648 118.763 100.236 119.067 100.764C119.371 101.292 119.775 101.712 120.279 102.024C120.791 102.336 121.351 102.492 121.959 102.492Z" fill="white"/>
<path d="M99.0001 28.9141V46.8385C99.0001 52.9259 83.8187 57.999 65.1583 57.999C46.4978 57.999 31.6327 53.0952 31.6327 47.0078V44.9787L31.3164 30.7745H31.4744C34.0046 36.0165 47.921 40.0749 64.6836 40.0749C81.4463 40.0749 98.6838 35.0022 98.6838 28.9144H99.0001V28.9141Z" fill="#CD3C04"/>
<path d="M31.4743 30.7764L31.3163 27.0562L31 11.8376C32.1069 17.5868 46.814 22.1524 64.6838 22.1524C82.5537 22.1524 98.3677 17.2486 98.842 11.3301H99V28.9163H98.6837C98.6837 35.0037 83.344 40.0768 64.6835 40.0768C46.0234 40.0765 34.0048 36.0184 31.4743 30.7764Z" fill="#FA4D0A"/>
<path d="M98.842 10.9909V11.3292C98.3677 17.2477 83.028 22.1515 64.6838 22.1515C46.3397 22.1515 32.1069 17.5859 31 11.8367V10.9913C31 10.653 31 10.3148 31.158 9.97657C32.8976 4.39631 46.972 1.60209e-08 64.2092 1.60209e-08H64.6835C83.3443 -0.000323646 98.842 4.90349 98.842 10.9909Z" fill="#FC9770"/>
</svg>
