<svg width="148" height="34" viewBox="0 0 148 34" fill="none" xmlns="http://www.w3.org/2000/svg">
<path d="M39.68 27V7.4H46.176C47.5293 7.4 48.794 7.65667 49.97 8.17C51.1553 8.674 52.196 9.37867 53.092 10.284C53.9973 11.18 54.702 12.2207 55.206 13.406C55.7193 14.582 55.976 15.8467 55.976 17.2C55.976 18.5533 55.7193 19.8227 55.206 21.008C54.702 22.184 53.9973 23.2247 53.092 24.13C52.196 25.026 51.1553 25.7307 49.97 26.244C48.794 26.748 47.5293 27 46.176 27H39.68ZM43.544 23.136H46.176C46.9787 23.136 47.7347 22.982 48.444 22.674C49.1627 22.366 49.7973 21.9413 50.348 21.4C50.8987 20.8587 51.328 20.2287 51.636 19.51C51.9533 18.7913 52.112 18.0213 52.112 17.2C52.112 16.3787 51.9533 15.6133 51.636 14.904C51.328 14.1853 50.8987 13.5553 50.348 13.014C49.8067 12.4633 49.1767 12.034 48.458 11.726C47.7487 11.418 46.988 11.264 46.176 11.264H43.544V23.136ZM64.133 27.364C62.845 27.364 61.669 27.0327 60.605 26.37C59.5503 25.7073 58.7056 24.8207 58.071 23.71C57.4456 22.59 57.133 21.3533 57.133 20C57.133 18.9733 57.315 18.0167 57.679 17.13C58.043 16.234 58.5423 15.45 59.177 14.778C59.821 14.0967 60.5676 13.5647 61.417 13.182C62.2663 12.7993 63.1716 12.608 64.133 12.608C65.421 12.608 66.5923 12.9393 67.647 13.602C68.711 14.2647 69.5556 15.156 70.181 16.276C70.8156 17.396 71.133 18.6373 71.133 20C71.133 21.0173 70.951 21.9693 70.587 22.856C70.223 23.7427 69.719 24.5267 69.075 25.208C68.4403 25.88 67.6983 26.4073 66.849 26.79C66.009 27.1727 65.1036 27.364 64.133 27.364ZM64.133 23.5C64.7303 23.5 65.267 23.3413 65.743 23.024C66.219 22.6973 66.5923 22.268 66.863 21.736C67.1336 21.204 67.269 20.6253 67.269 20C67.269 19.356 67.1243 18.768 66.835 18.236C66.555 17.6947 66.177 17.2653 65.701 16.948C65.225 16.6307 64.7023 16.472 64.133 16.472C63.545 16.472 63.013 16.6353 62.537 16.962C62.061 17.2887 61.683 17.718 61.403 18.25C61.1323 18.782 60.997 19.3653 60.997 20C60.997 20.6627 61.137 21.26 61.417 21.792C61.7063 22.3147 62.089 22.73 62.565 23.038C63.041 23.346 63.5636 23.5 64.133 23.5ZM76.2948 27L71.2828 7.4H75.2728L78.4648 19.93L81.6568 7.4H85.1988L88.3908 19.93L91.5828 7.4H95.5728L90.5888 27H86.2208L83.4348 16.108L80.6628 27H76.2948ZM111.418 19.874V27H107.554V19.93C107.554 19.2673 107.419 18.6653 107.148 18.124C106.887 17.5827 106.528 17.1533 106.07 16.836C105.613 16.5093 105.109 16.346 104.558 16.346C103.914 16.346 103.387 16.5093 102.976 16.836C102.575 17.1533 102.281 17.5827 102.094 18.124C101.908 18.6653 101.814 19.2673 101.814 19.93V27H97.9222V6H101.786V14.064C102.094 13.4387 102.514 13.0467 103.046 12.888C103.588 12.72 104.227 12.636 104.964 12.636C106.28 12.636 107.414 12.9627 108.366 13.616C109.328 14.2693 110.07 15.1467 110.592 16.248C111.124 17.34 111.4 18.5487 111.418 19.874ZM114.219 13H118.083V27H114.219V13ZM116.165 11.11C115.614 11.11 115.148 10.9233 114.765 10.55C114.382 10.1767 114.191 9.71467 114.191 9.164C114.191 8.61333 114.382 8.15133 114.765 7.778C115.148 7.40467 115.614 7.218 116.165 7.218C116.716 7.218 117.178 7.40467 117.551 7.778C117.934 8.15133 118.125 8.61333 118.125 9.164C118.125 9.71467 117.934 10.1767 117.551 10.55C117.178 10.9233 116.716 11.11 116.165 11.11ZM130.612 16.864H128.092V27H124.228V16.864H122.296V13H124.228V8.604H128.092V13H130.612V16.864ZM146.364 19.874V27H142.5V19.93C142.5 19.2673 142.364 18.6653 142.094 18.124C141.832 17.5827 141.473 17.1533 141.016 16.836C140.558 16.5093 140.054 16.346 139.504 16.346C138.86 16.346 138.332 16.5093 137.922 16.836C137.52 17.1533 137.226 17.5827 137.04 18.124C136.853 18.6653 136.76 19.2673 136.76 19.93V27H132.868V6H136.732V14.064C137.04 13.4387 137.46 13.0467 137.992 12.888C138.533 12.72 139.172 12.636 139.91 12.636C141.226 12.636 142.36 12.9627 143.312 13.616C144.273 14.2693 145.015 15.1467 145.538 16.248C146.07 17.34 146.345 18.5487 146.364 19.874Z" fill="#6345D5"/>
<path d="M30.0001 16.9648V24.3818C30.0001 26.9007 23.3024 28.9999 15.0699 28.9999C6.83731 28.9999 0.279199 26.9708 0.279199 24.4519V23.6123L0.139648 17.7347H0.209356C1.32561 19.9038 7.46522 21.5831 14.8605 21.5831C22.2558 21.5831 29.8606 19.484 29.8606 16.965H30.0001V16.9648Z" fill="#CD3C04"/>
<path d="M0.209254 17.7342L0.139546 16.1948L0 9.8975C0.488353 12.2765 6.97676 14.1657 14.8605 14.1657C22.7443 14.1657 29.721 12.1365 29.9303 9.6875H30V16.9645H29.8605C29.8605 19.4834 23.0929 21.5826 14.8604 21.5826C6.62796 21.5825 1.32564 19.9033 0.209254 17.7342Z" fill="#FA4D0A"/>
<path d="M29.9303 9.54795V9.6879C29.721 12.1369 22.9535 14.1661 14.8605 14.1661C6.7675 14.1661 0.488353 12.2769 0 9.8979V9.54808C0 9.40813 4.21857e-07 9.26817 0.0697079 9.12821C0.837158 6.81915 7.04647 5 14.6511 5H14.8604C23.0931 4.99987 29.9303 7.02902 29.9303 9.54795Z" fill="#FC9770"/>
</svg>
