<svg width="152" height="40" viewBox="0 0 152 40" fill="none" xmlns="http://www.w3.org/2000/svg">
<rect x="0.5" y="0.5" width="39" height="39" rx="19.5" stroke="#CAC0F3"/>
<path d="M28.0025 11H11.9975C11.7336 11.002 11.481 11.1077 11.2943 11.2943C11.1077 11.481 11.002 11.7336 11 11.9975V28.0025C11.002 28.2664 11.1077 28.519 11.2943 28.7057C11.481 28.8923 11.7336 28.998 11.9975 29H20.615V22.04H18.275V19.3175H20.615V17.315C20.615 14.99 22.0325 13.7225 24.1175 13.7225C24.815 13.7225 25.5125 13.7225 26.21 13.8275V16.25H24.7775C23.645 16.25 23.4275 16.79 23.4275 17.5775V19.31H26.1275L25.775 22.0325H23.4275V29H28.0025C28.2664 28.998 28.519 28.8923 28.7057 28.7057C28.8923 28.519 28.998 28.2664 29 28.0025V11.9975C28.998 11.7336 28.8923 11.481 28.7057 11.2943C28.519 11.1077 28.2664 11.002 28.0025 11Z" fill="white"/>
<rect x="56.5" y="0.5" width="39" height="39" rx="19.5" stroke="#CAC0F3"/>
<path d="M80.8046 16.2752C81.4011 16.2752 81.8846 15.7917 81.8846 15.1952C81.8846 14.5988 81.4011 14.1152 80.8046 14.1152C80.2081 14.1152 79.7246 14.5988 79.7246 15.1952C79.7246 15.7917 80.2081 16.2752 80.8046 16.2752Z" fill="white"/>
<path d="M76.0004 15.3789C75.0864 15.3789 74.1928 15.65 73.4328 16.1578C72.6728 16.6656 72.0805 17.3874 71.7307 18.2318C71.3809 19.0763 71.2894 20.0055 71.4677 20.902C71.646 21.7985 72.0862 22.622 72.7325 23.2683C73.3788 23.9146 74.2023 24.3548 75.0988 24.5331C75.9953 24.7114 76.9245 24.6199 77.769 24.2701C78.6134 23.9203 79.3352 23.328 79.843 22.568C80.3509 21.808 80.6219 20.9145 80.6219 20.0004C80.6219 18.7747 80.135 17.5992 79.2683 16.7325C78.4016 15.8658 77.2261 15.3789 76.0004 15.3789ZM76.0004 23.0004C75.4071 23.0004 74.827 22.8245 74.3337 22.4948C73.8404 22.1652 73.4558 21.6966 73.2288 21.1485C73.0017 20.6003 72.9423 19.9971 73.0581 19.4151C73.1738 18.8332 73.4595 18.2986 73.8791 17.8791C74.2986 17.4595 74.8332 17.1738 75.4151 17.058C75.9971 16.9423 76.6003 17.0017 77.1485 17.2288C77.6966 17.4558 78.1652 17.8403 78.4948 18.3337C78.8245 18.827 79.0004 19.4071 79.0004 20.0004C79.0004 20.7961 78.6843 21.5591 78.1217 22.1217C77.5591 22.6843 76.7961 23.0004 76.0004 23.0004Z" fill="white"/>
<path d="M76 12.6215C78.403 12.6215 78.688 12.6305 79.6368 12.674C80.2074 12.6808 80.7726 12.7855 81.3077 12.9837C81.696 13.1335 82.0486 13.3629 82.3428 13.6572C82.6371 13.9514 82.8665 14.304 83.0163 14.6923C83.2145 15.2274 83.3192 15.7926 83.326 16.3632C83.3695 17.312 83.3785 17.597 83.3785 20.0007C83.3785 22.4045 83.3695 22.688 83.326 23.6368C83.3192 24.2074 83.2145 24.7726 83.0163 25.3077C82.8665 25.696 82.6371 26.0486 82.3428 26.3428C82.0486 26.6371 81.696 26.8665 81.3077 27.0163C80.7726 27.2145 80.2074 27.3192 79.6368 27.326C78.688 27.3695 78.403 27.3785 76 27.3785C73.597 27.3785 73.312 27.3695 72.3632 27.326C71.7926 27.3192 71.2274 27.2145 70.6923 27.0163C70.304 26.8665 69.9514 26.6371 69.6572 26.3428C69.3629 26.0486 69.1335 25.696 68.9837 25.3077C68.7855 24.7726 68.6808 24.2074 68.674 23.6368C68.6305 22.688 68.6215 22.403 68.6215 20C68.6215 17.597 68.6305 17.312 68.674 16.3632C68.6808 15.7926 68.7855 15.2274 68.9837 14.6923C69.1335 14.304 69.3629 13.9514 69.6572 13.6572C69.9514 13.3629 70.304 13.1335 70.6923 12.9837C71.2274 12.7855 71.7926 12.6808 72.3632 12.674C73.312 12.6305 73.597 12.6215 76 12.6215ZM76 11C73.5557 11 73.249 11.0105 72.289 11.054C71.5426 11.0691 70.8041 11.2106 70.105 11.4725C69.507 11.7037 68.964 12.0573 68.5107 12.5107C68.0573 12.964 67.7037 13.507 67.4725 14.105C67.2105 14.8044 67.069 15.5431 67.054 16.2898C67.0105 17.2498 67 17.555 67 20C67 22.445 67.0105 22.751 67.054 23.711C67.0691 24.4574 67.2106 25.1959 67.4725 25.895C67.7037 26.493 68.0573 27.036 68.5107 27.4893C68.964 27.9427 69.507 28.2963 70.105 28.5275C70.8044 28.7895 71.5431 28.931 72.2898 28.946C73.2498 28.9895 73.5557 29 76 29C78.4443 29 78.751 28.9895 79.711 28.946C80.4577 28.931 81.1964 28.7895 81.8958 28.5275C82.4937 28.2963 83.0368 27.9427 83.4901 27.4893C83.9434 27.036 84.297 26.493 84.5282 25.895C84.79 25.1956 84.9313 24.4569 84.946 23.7103C84.9895 22.7503 85 22.445 85 20C85 17.555 84.9895 17.249 84.946 16.289C84.9309 15.5426 84.7894 14.8041 84.5275 14.105C84.2963 13.507 83.9427 12.964 83.4893 12.5107C83.036 12.0573 82.493 11.7037 81.895 11.4725C81.1956 11.2107 80.4569 11.0695 79.7103 11.0547C78.7503 11.0097 78.445 11 76 11Z" fill="white"/>
<rect x="112.5" y="0.5" width="39" height="39" rx="19.5" stroke="#CAC0F3"/>
<path d="M128.94 26.7045C130.207 26.7125 131.463 26.4688 132.635 25.9877C133.807 25.5066 134.871 24.7975 135.767 23.9017C136.663 23.0059 137.372 21.9411 137.853 20.7691C138.334 19.5972 138.578 18.3414 138.57 17.0745V16.632C139.227 16.1509 139.795 15.5596 140.25 14.8845C139.632 15.1549 138.977 15.3343 138.307 15.417C139.018 14.9938 139.551 14.3278 139.807 13.542C139.146 13.9391 138.42 14.2182 137.662 14.367C137.152 13.8235 136.478 13.4633 135.742 13.342C135.007 13.2208 134.252 13.3453 133.594 13.6962C132.937 14.0472 132.413 14.6051 132.105 15.2836C131.796 15.962 131.72 16.7233 131.888 17.4495C130.542 17.3835 129.226 17.0348 128.024 16.4261C126.822 15.8175 125.762 14.9626 124.913 13.917C124.484 14.6604 124.354 15.5387 124.549 16.3742C124.744 17.2097 125.249 17.9399 125.962 18.417C125.436 18.3967 124.923 18.2528 124.462 17.997V18.0345C124.458 18.8114 124.72 19.5664 125.204 20.1737C125.689 20.781 126.367 21.2039 127.125 21.372C126.636 21.5036 126.123 21.5241 125.625 21.432C125.845 22.0945 126.264 22.6729 126.825 23.0878C127.386 23.5028 128.062 23.7339 128.76 23.7495C127.567 24.7099 126.084 25.2385 124.553 25.2495C124.284 25.2417 124.016 25.2192 123.75 25.182C125.3 26.1697 127.102 26.6904 128.94 26.682" fill="white"/>
</svg>
