<svg width="368" height="188" viewBox="0 0 368 188" fill="none" xmlns="http://www.w3.org/2000/svg">
<rect x="0.75" y="0.75" width="366.5" height="186.5" rx="15.25" fill="#201353" stroke="#2C1A74" stroke-width="1.5"/>
<path d="M56.84 39.9002C61.72 44.7802 61.72 52.7002 56.84 57.5802C51.96 62.4602 44.04 62.4602 39.16 57.5802C34.28 52.7002 34.28 44.7802 39.16 39.9002C44.04 35.0202 51.96 35.0202 56.84 39.9002Z" fill="white" fill-opacity="0.3"/>
<path d="M40.5001 68.7797C40.3201 68.7797 40.1201 68.7397 39.9401 68.6797C35.4401 66.8797 31.8001 63.6997 29.3601 59.4997C27.0001 55.3997 26.0601 50.7597 26.6801 46.0397C26.7801 45.2197 27.5601 44.6397 28.3601 44.7397C29.1801 44.8397 29.7601 45.5997 29.6601 46.4197C29.1401 50.4797 29.9401 54.4797 31.9601 57.9997C34.0401 61.5997 37.1801 64.3397 41.0401 65.8797C41.8001 66.1997 42.1801 67.0597 41.8801 67.8397C41.6601 68.4197 41.0801 68.7797 40.5001 68.7797Z" fill="white" fill-opacity="0.3"/>
<path d="M35.7002 34.4607C35.2602 34.4607 34.8202 34.2607 34.5202 33.8807C34.0002 33.2407 34.1202 32.3007 34.7802 31.7807C38.5802 28.8007 43.1602 27.2207 48.0002 27.2207C52.7202 27.2207 57.2202 28.7407 61.0002 31.6207C61.6602 32.1207 61.7802 33.0607 61.2802 33.7207C60.7802 34.3807 59.8402 34.5007 59.1802 34.0007C55.9202 31.5207 52.0602 30.2207 48.0002 30.2207C43.8402 30.2207 39.9002 31.5807 36.6202 34.1407C36.3402 34.3607 36.0202 34.4607 35.7002 34.4607Z" fill="white" fill-opacity="0.3"/>
<path d="M55.4999 68.7793C54.8999 68.7793 54.3399 68.4193 54.0999 67.8393C53.7999 67.0793 54.1599 66.1993 54.9399 65.8793C58.7999 64.3193 61.9399 61.5993 64.0199 57.9993C66.0599 54.4793 66.8599 50.4793 66.3199 46.4393C66.2199 45.6193 66.7999 44.8593 67.6199 44.7593C68.4199 44.6593 69.1999 45.2393 69.2999 46.0593C69.8999 50.7593 68.9799 55.4193 66.6199 59.5193C64.1999 63.7193 60.5399 66.8793 56.0399 68.6993C55.8799 68.7393 55.6999 68.7793 55.4999 68.7793Z" fill="white" fill-opacity="0.3"/>
<path d="M94.611 41.4V43.272H90.597V54H88.725V43.272H84.72V41.4H94.611ZM100.436 46.881C100.28 46.785 100.109 46.71 99.9231 46.656C99.7431 46.596 99.5451 46.566 99.3291 46.566C98.8611 46.566 98.4531 46.689 98.1051 46.935C97.7571 47.181 97.4841 47.514 97.2861 47.934C97.0941 48.354 96.9981 48.819 96.9981 49.329V54H95.1171V45H96.9891V46.215C97.3011 45.765 97.6791 45.411 98.1231 45.153C98.5731 44.889 99.0741 44.757 99.6261 44.757C99.8301 44.757 100.022 44.766 100.202 44.784C100.388 44.802 100.565 44.838 100.733 44.892L100.436 46.881ZM108.581 45H110.453V54H108.572L108.5 52.695C108.236 53.157 107.879 53.529 107.429 53.811C106.985 54.093 106.457 54.234 105.845 54.234C105.179 54.234 104.555 54.111 103.973 53.865C103.397 53.613 102.887 53.265 102.443 52.821C102.005 52.377 101.66 51.867 101.408 51.291C101.162 50.709 101.039 50.085 101.039 49.419C101.039 48.777 101.159 48.174 101.399 47.61C101.639 47.04 101.972 46.542 102.398 46.116C102.824 45.69 103.316 45.357 103.874 45.117C104.438 44.871 105.041 44.748 105.683 44.748C106.337 44.748 106.913 44.898 107.411 45.198C107.915 45.492 108.329 45.87 108.653 46.332L108.581 45ZM105.89 52.425C106.43 52.425 106.895 52.29 107.285 52.02C107.681 51.75 107.978 51.387 108.176 50.931C108.38 50.475 108.467 49.971 108.437 49.419C108.401 48.891 108.26 48.411 108.014 47.979C107.774 47.547 107.453 47.205 107.051 46.953C106.649 46.695 106.193 46.566 105.683 46.566C105.149 46.566 104.666 46.701 104.234 46.971C103.808 47.241 103.478 47.604 103.244 48.06C103.01 48.516 102.908 49.023 102.938 49.581C102.974 50.103 103.13 50.58 103.406 51.012C103.688 51.444 104.045 51.789 104.477 52.047C104.915 52.299 105.386 52.425 105.89 52.425ZM120.959 49.284V54H119.087V49.32C119.087 48.81 118.979 48.348 118.763 47.934C118.553 47.514 118.262 47.181 117.89 46.935C117.524 46.683 117.107 46.557 116.639 46.557C116.171 46.557 115.76 46.683 115.406 46.935C115.058 47.181 114.785 47.514 114.587 47.934C114.395 48.348 114.299 48.81 114.299 49.32V54H112.427V45H114.299V46.215C114.611 45.759 114.989 45.402 115.433 45.144C115.877 44.88 116.378 44.748 116.936 44.748C117.746 44.748 118.448 44.955 119.042 45.369C119.642 45.783 120.11 46.332 120.446 47.016C120.782 47.7 120.953 48.456 120.959 49.284ZM125.733 54.171C125.259 54.141 124.797 54.045 124.347 53.883C123.897 53.721 123.501 53.502 123.159 53.226C122.823 52.944 122.571 52.614 122.403 52.236L123.996 51.552C124.074 51.714 124.209 51.873 124.401 52.029C124.599 52.185 124.83 52.314 125.094 52.416C125.358 52.512 125.634 52.56 125.922 52.56C126.204 52.56 126.465 52.521 126.705 52.443C126.951 52.359 127.152 52.233 127.308 52.065C127.464 51.897 127.542 51.696 127.542 51.462C127.542 51.198 127.452 50.994 127.272 50.85C127.098 50.7 126.879 50.586 126.615 50.508C126.351 50.43 126.087 50.355 125.823 50.283C125.235 50.151 124.695 49.971 124.203 49.743C123.717 49.509 123.33 49.212 123.042 48.852C122.754 48.486 122.61 48.039 122.61 47.511C122.61 46.935 122.763 46.437 123.069 46.017C123.381 45.591 123.792 45.264 124.302 45.036C124.812 44.808 125.355 44.694 125.931 44.694C126.651 44.694 127.311 44.847 127.911 45.153C128.511 45.459 128.97 45.879 129.288 46.413L127.803 47.295C127.713 47.115 127.578 46.953 127.398 46.809C127.218 46.665 127.014 46.551 126.786 46.467C126.558 46.377 126.321 46.326 126.075 46.314C125.769 46.302 125.484 46.338 125.22 46.422C124.962 46.5 124.755 46.626 124.599 46.8C124.443 46.974 124.365 47.196 124.365 47.466C124.365 47.73 124.458 47.928 124.644 48.06C124.83 48.186 125.064 48.288 125.346 48.366C125.634 48.444 125.928 48.531 126.228 48.627C126.762 48.795 127.263 49.002 127.731 49.248C128.199 49.488 128.577 49.785 128.865 50.139C129.153 50.493 129.291 50.925 129.279 51.435C129.279 51.999 129.108 52.494 128.766 52.92C128.43 53.346 127.992 53.67 127.452 53.892C126.912 54.114 126.339 54.207 125.733 54.171ZM137.884 45H139.756V54H137.875L137.803 52.695C137.539 53.157 137.182 53.529 136.732 53.811C136.288 54.093 135.76 54.234 135.148 54.234C134.482 54.234 133.858 54.111 133.276 53.865C132.7 53.613 132.19 53.265 131.746 52.821C131.308 52.377 130.963 51.867 130.711 51.291C130.465 50.709 130.342 50.085 130.342 49.419C130.342 48.777 130.462 48.174 130.702 47.61C130.942 47.04 131.275 46.542 131.701 46.116C132.127 45.69 132.619 45.357 133.177 45.117C133.741 44.871 134.344 44.748 134.986 44.748C135.64 44.748 136.216 44.898 136.714 45.198C137.218 45.492 137.632 45.87 137.956 46.332L137.884 45ZM135.193 52.425C135.733 52.425 136.198 52.29 136.588 52.02C136.984 51.75 137.281 51.387 137.479 50.931C137.683 50.475 137.77 49.971 137.74 49.419C137.704 48.891 137.563 48.411 137.317 47.979C137.077 47.547 136.756 47.205 136.354 46.953C135.952 46.695 135.496 46.566 134.986 46.566C134.452 46.566 133.969 46.701 133.537 46.971C133.111 47.241 132.781 47.604 132.547 48.06C132.313 48.516 132.211 49.023 132.241 49.581C132.277 50.103 132.433 50.58 132.709 51.012C132.991 51.444 133.348 51.789 133.78 52.047C134.218 52.299 134.689 52.425 135.193 52.425ZM147.488 51.444L149.162 52.353C148.754 52.923 148.235 53.379 147.605 53.721C146.981 54.063 146.303 54.234 145.571 54.234C144.743 54.234 143.987 54.021 143.303 53.595C142.625 53.169 142.082 52.599 141.674 51.885C141.272 51.165 141.071 50.37 141.071 49.5C141.071 48.84 141.188 48.225 141.422 47.655C141.656 47.079 141.977 46.575 142.385 46.143C142.799 45.705 143.279 45.363 143.825 45.117C144.371 44.871 144.953 44.748 145.571 44.748C146.303 44.748 146.981 44.919 147.605 45.261C148.235 45.603 148.754 46.062 149.162 46.638L147.488 47.547C147.236 47.247 146.942 47.019 146.606 46.863C146.27 46.701 145.925 46.62 145.571 46.62C145.079 46.62 144.632 46.755 144.23 47.025C143.834 47.289 143.519 47.64 143.285 48.078C143.057 48.51 142.943 48.984 142.943 49.5C142.943 50.01 143.06 50.484 143.294 50.922C143.528 51.354 143.843 51.702 144.239 51.966C144.641 52.23 145.085 52.362 145.571 52.362C145.943 52.362 146.297 52.278 146.633 52.11C146.969 51.942 147.254 51.72 147.488 51.444ZM155.539 46.872H153.649L153.64 54H151.768L151.777 46.872H150.346V45H151.777L151.768 42.174H153.64L153.649 45H155.539V46.872ZM156.764 45H158.636V54H156.764V45ZM157.709 43.515C157.427 43.515 157.19 43.422 156.998 43.236C156.806 43.05 156.71 42.816 156.71 42.534C156.71 42.258 156.806 42.027 156.998 41.841C157.19 41.649 157.427 41.553 157.709 41.553C157.985 41.553 158.219 41.649 158.411 41.841C158.603 42.027 158.699 42.258 158.699 42.534C158.699 42.816 158.603 43.05 158.411 43.236C158.219 43.422 157.985 43.515 157.709 43.515ZM165.435 54.234C164.607 54.234 163.851 54.021 163.167 53.595C162.489 53.169 161.946 52.599 161.538 51.885C161.136 51.165 160.935 50.37 160.935 49.5C160.935 48.84 161.052 48.225 161.286 47.655C161.52 47.079 161.841 46.575 162.249 46.143C162.663 45.705 163.143 45.363 163.689 45.117C164.235 44.871 164.817 44.748 165.435 44.748C166.263 44.748 167.016 44.961 167.694 45.387C168.378 45.813 168.921 46.386 169.323 47.106C169.731 47.826 169.935 48.624 169.935 49.5C169.935 50.154 169.818 50.766 169.584 51.336C169.35 51.906 169.026 52.41 168.612 52.848C168.204 53.28 167.727 53.619 167.181 53.865C166.641 54.111 166.059 54.234 165.435 54.234ZM165.435 52.362C165.933 52.362 166.38 52.23 166.776 51.966C167.172 51.702 167.484 51.354 167.712 50.922C167.946 50.484 168.063 50.01 168.063 49.5C168.063 48.978 167.943 48.498 167.703 48.06C167.469 47.622 167.154 47.274 166.758 47.016C166.362 46.752 165.921 46.62 165.435 46.62C164.943 46.62 164.496 46.752 164.094 47.016C163.698 47.28 163.383 47.631 163.149 48.069C162.921 48.507 162.807 48.984 162.807 49.5C162.807 50.034 162.927 50.517 163.167 50.949C163.407 51.381 163.725 51.726 164.121 51.984C164.523 52.236 164.961 52.362 165.435 52.362ZM179.741 49.284V54H177.869V49.32C177.869 48.81 177.761 48.348 177.545 47.934C177.335 47.514 177.044 47.181 176.672 46.935C176.306 46.683 175.889 46.557 175.421 46.557C174.953 46.557 174.542 46.683 174.188 46.935C173.84 47.181 173.567 47.514 173.369 47.934C173.177 48.348 173.081 48.81 173.081 49.32V54H171.209V45H173.081V46.215C173.393 45.759 173.771 45.402 174.215 45.144C174.659 44.88 175.16 44.748 175.718 44.748C176.528 44.748 177.23 44.955 177.824 45.369C178.424 45.783 178.892 46.332 179.228 47.016C179.564 47.7 179.735 48.456 179.741 49.284ZM193.618 41.4H195.49V54H193.618V48.186H187.921V54H186.049V41.4H187.921V46.314H193.618V41.4ZM197.65 45H199.522V54H197.65V45ZM198.595 43.515C198.313 43.515 198.076 43.422 197.884 43.236C197.692 43.05 197.596 42.816 197.596 42.534C197.596 42.258 197.692 42.027 197.884 41.841C198.076 41.649 198.313 41.553 198.595 41.553C198.871 41.553 199.105 41.649 199.297 41.841C199.489 42.027 199.585 42.258 199.585 42.534C199.585 42.816 199.489 43.05 199.297 43.236C199.105 43.422 198.871 43.515 198.595 43.515ZM205.028 54.171C204.554 54.141 204.092 54.045 203.642 53.883C203.192 53.721 202.796 53.502 202.454 53.226C202.118 52.944 201.866 52.614 201.698 52.236L203.291 51.552C203.369 51.714 203.504 51.873 203.696 52.029C203.894 52.185 204.125 52.314 204.389 52.416C204.653 52.512 204.929 52.56 205.217 52.56C205.499 52.56 205.76 52.521 206 52.443C206.246 52.359 206.447 52.233 206.603 52.065C206.759 51.897 206.837 51.696 206.837 51.462C206.837 51.198 206.747 50.994 206.567 50.85C206.393 50.7 206.174 50.586 205.91 50.508C205.646 50.43 205.382 50.355 205.118 50.283C204.53 50.151 203.99 49.971 203.498 49.743C203.012 49.509 202.625 49.212 202.337 48.852C202.049 48.486 201.905 48.039 201.905 47.511C201.905 46.935 202.058 46.437 202.364 46.017C202.676 45.591 203.087 45.264 203.597 45.036C204.107 44.808 204.65 44.694 205.226 44.694C205.946 44.694 206.606 44.847 207.206 45.153C207.806 45.459 208.265 45.879 208.583 46.413L207.098 47.295C207.008 47.115 206.873 46.953 206.693 46.809C206.513 46.665 206.309 46.551 206.081 46.467C205.853 46.377 205.616 46.326 205.37 46.314C205.064 46.302 204.779 46.338 204.515 46.422C204.257 46.5 204.05 46.626 203.894 46.8C203.738 46.974 203.66 47.196 203.66 47.466C203.66 47.73 203.753 47.928 203.939 48.06C204.125 48.186 204.359 48.288 204.641 48.366C204.929 48.444 205.223 48.531 205.523 48.627C206.057 48.795 206.558 49.002 207.026 49.248C207.494 49.488 207.872 49.785 208.16 50.139C208.448 50.493 208.586 50.925 208.574 51.435C208.574 51.999 208.403 52.494 208.061 52.92C207.725 53.346 207.287 53.67 206.747 53.892C206.207 54.114 205.634 54.207 205.028 54.171ZM214.953 46.872H213.063L213.054 54H211.182L211.191 46.872H209.76V45H211.191L211.182 42.174H213.054L213.063 45H214.953V46.872ZM220.261 54.234C219.433 54.234 218.677 54.021 217.993 53.595C217.315 53.169 216.772 52.599 216.364 51.885C215.962 51.165 215.761 50.37 215.761 49.5C215.761 48.84 215.878 48.225 216.112 47.655C216.346 47.079 216.667 46.575 217.075 46.143C217.489 45.705 217.969 45.363 218.515 45.117C219.061 44.871 219.643 44.748 220.261 44.748C221.089 44.748 221.842 44.961 222.52 45.387C223.204 45.813 223.747 46.386 224.149 47.106C224.557 47.826 224.761 48.624 224.761 49.5C224.761 50.154 224.644 50.766 224.41 51.336C224.176 51.906 223.852 52.41 223.438 52.848C223.03 53.28 222.553 53.619 222.007 53.865C221.467 54.111 220.885 54.234 220.261 54.234ZM220.261 52.362C220.759 52.362 221.206 52.23 221.602 51.966C221.998 51.702 222.31 51.354 222.538 50.922C222.772 50.484 222.889 50.01 222.889 49.5C222.889 48.978 222.769 48.498 222.529 48.06C222.295 47.622 221.98 47.274 221.584 47.016C221.188 46.752 220.747 46.62 220.261 46.62C219.769 46.62 219.322 46.752 218.92 47.016C218.524 47.28 218.209 47.631 217.975 48.069C217.747 48.507 217.633 48.984 217.633 49.5C217.633 50.034 217.753 50.517 217.993 50.949C218.233 51.381 218.551 51.726 218.947 51.984C219.349 52.236 219.787 52.362 220.261 52.362ZM231.534 46.881C231.378 46.785 231.207 46.71 231.021 46.656C230.841 46.596 230.643 46.566 230.427 46.566C229.959 46.566 229.551 46.689 229.203 46.935C228.855 47.181 228.582 47.514 228.384 47.934C228.192 48.354 228.096 48.819 228.096 49.329V54H226.215V45H228.087V46.215C228.399 45.765 228.777 45.411 229.221 45.153C229.671 44.889 230.172 44.757 230.724 44.757C230.928 44.757 231.12 44.766 231.3 44.784C231.486 44.802 231.663 44.838 231.831 44.892L231.534 46.881ZM239.183 45H241.181L236.249 58.5H234.26L235.889 54L232.658 45H234.701L236.825 51.435L239.183 45Z" fill="white"/>
<rect x="24" y="160" width="320" height="4" rx="2" fill="white" fill-opacity="0.15"/>
<rect x="24" y="92" width="307" height="16" rx="4" fill="white" fill-opacity="0.3"/>
<rect x="24" y="118" width="287" height="16" rx="4" fill="white" fill-opacity="0.29"/>
</svg>
