<svg width="368" height="188" viewBox="0 0 368 188" fill="none" xmlns="http://www.w3.org/2000/svg">
<rect x="0.75" y="0.75" width="366.5" height="186.5" rx="15.25" fill="#201353" stroke="#2C1A74" stroke-width="1.5"/>
<path d="M56.84 39.9002C61.72 44.7802 61.72 52.7002 56.84 57.5802C51.96 62.4602 44.04 62.4602 39.16 57.5802C34.28 52.7002 34.28 44.7802 39.16 39.9002C44.04 35.0202 51.96 35.0202 56.84 39.9002Z" fill="white" fill-opacity="0.3"/>
<path d="M40.5001 68.7797C40.3201 68.7797 40.1201 68.7397 39.9401 68.6797C35.4401 66.8797 31.8001 63.6997 29.3601 59.4997C27.0001 55.3997 26.0601 50.7597 26.6801 46.0397C26.7801 45.2197 27.5601 44.6397 28.3601 44.7397C29.1801 44.8397 29.7601 45.5997 29.6601 46.4197C29.1401 50.4797 29.9401 54.4797 31.9601 57.9997C34.0401 61.5997 37.1801 64.3397 41.0401 65.8797C41.8001 66.1997 42.1801 67.0597 41.8801 67.8397C41.6601 68.4197 41.0801 68.7797 40.5001 68.7797Z" fill="white" fill-opacity="0.3"/>
<path d="M35.7002 34.4607C35.2602 34.4607 34.8202 34.2607 34.5202 33.8807C34.0002 33.2407 34.1202 32.3007 34.7802 31.7807C38.5802 28.8007 43.1602 27.2207 48.0002 27.2207C52.7202 27.2207 57.2202 28.7407 61.0002 31.6207C61.6602 32.1207 61.7802 33.0607 61.2802 33.7207C60.7802 34.3807 59.8402 34.5007 59.1802 34.0007C55.9202 31.5207 52.0602 30.2207 48.0002 30.2207C43.8402 30.2207 39.9002 31.5807 36.6202 34.1407C36.3402 34.3607 36.0202 34.4607 35.7002 34.4607Z" fill="white" fill-opacity="0.3"/>
<path d="M55.4999 68.7793C54.8999 68.7793 54.3399 68.4193 54.0999 67.8393C53.7999 67.0793 54.1599 66.1993 54.9399 65.8793C58.7999 64.3193 61.9399 61.5993 64.0199 57.9993C66.0599 54.4793 66.8599 50.4793 66.3199 46.4393C66.2199 45.6193 66.7999 44.8593 67.6199 44.7593C68.4199 44.6593 69.1999 45.2393 69.2999 46.0593C69.8999 50.7593 68.9799 55.4193 66.6199 59.5193C64.1999 63.7193 60.5399 66.8793 56.0399 68.6993C55.8799 68.7393 55.6999 68.7793 55.4999 68.7793Z" fill="white" fill-opacity="0.3"/>
<path d="M90.066 54.234C89.058 54.234 88.179 53.988 87.429 53.496C86.685 53.004 86.106 52.344 85.692 51.516C85.284 50.682 85.08 49.758 85.08 48.744V41.4H86.952V48.744C86.952 49.404 87.072 50.01 87.312 50.562C87.558 51.108 87.912 51.546 88.374 51.876C88.842 52.2 89.406 52.362 90.066 52.362C90.744 52.362 91.314 52.2 91.776 51.876C92.238 51.546 92.586 51.108 92.82 50.562C93.06 50.01 93.18 49.404 93.18 48.744V41.4H95.052V48.744C95.052 49.506 94.935 50.22 94.701 50.886C94.467 51.546 94.131 52.128 93.693 52.632C93.255 53.136 92.73 53.529 92.118 53.811C91.506 54.093 90.822 54.234 90.066 54.234ZM99.9089 54.171C99.4349 54.141 98.9729 54.045 98.5229 53.883C98.0729 53.721 97.6769 53.502 97.3349 53.226C96.9989 52.944 96.7469 52.614 96.5789 52.236L98.1719 51.552C98.2499 51.714 98.3849 51.873 98.5769 52.029C98.7749 52.185 99.0059 52.314 99.2699 52.416C99.5339 52.512 99.8099 52.56 100.098 52.56C100.38 52.56 100.641 52.521 100.881 52.443C101.127 52.359 101.328 52.233 101.484 52.065C101.64 51.897 101.718 51.696 101.718 51.462C101.718 51.198 101.628 50.994 101.448 50.85C101.274 50.7 101.055 50.586 100.791 50.508C100.527 50.43 100.263 50.355 99.9989 50.283C99.4109 50.151 98.8709 49.971 98.3789 49.743C97.8929 49.509 97.5059 49.212 97.2179 48.852C96.9299 48.486 96.7859 48.039 96.7859 47.511C96.7859 46.935 96.9419 46.437 97.2539 46.017C97.5659 45.591 97.9739 45.264 98.4779 45.036C98.9879 44.808 99.5309 44.694 100.107 44.694C100.827 44.694 101.487 44.847 102.087 45.153C102.687 45.459 103.146 45.879 103.464 46.413L101.979 47.295C101.889 47.115 101.754 46.953 101.574 46.809C101.394 46.665 101.19 46.551 100.962 46.467C100.734 46.377 100.497 46.326 100.251 46.314C99.9449 46.302 99.6599 46.338 99.3959 46.422C99.1379 46.5 98.9309 46.626 98.7749 46.8C98.6189 46.974 98.5409 47.196 98.5409 47.466C98.5409 47.73 98.6339 47.928 98.8199 48.06C99.0059 48.186 99.2399 48.288 99.5219 48.366C99.8099 48.444 100.104 48.531 100.404 48.627C100.938 48.795 101.439 49.002 101.907 49.248C102.375 49.488 102.753 49.785 103.041 50.139C103.329 50.493 103.467 50.925 103.455 51.435C103.455 51.999 103.284 52.494 102.942 52.92C102.606 53.346 102.168 53.67 101.628 53.892C101.088 54.114 100.515 54.207 99.9089 54.171ZM108.833 54.234C108.005 54.234 107.249 54.021 106.565 53.595C105.887 53.169 105.344 52.599 104.936 51.885C104.534 51.165 104.333 50.37 104.333 49.5C104.333 48.84 104.45 48.225 104.684 47.655C104.918 47.079 105.239 46.575 105.647 46.143C106.061 45.705 106.541 45.363 107.087 45.117C107.633 44.871 108.215 44.748 108.833 44.748C109.523 44.748 110.156 44.892 110.732 45.18C111.308 45.462 111.8 45.855 112.208 46.359C112.616 46.857 112.916 47.433 113.108 48.087C113.3 48.735 113.357 49.425 113.279 50.157H106.34C106.418 50.571 106.568 50.946 106.79 51.282C107.018 51.612 107.306 51.873 107.654 52.065C108.008 52.257 108.401 52.356 108.833 52.362C109.289 52.362 109.703 52.248 110.075 52.02C110.453 51.792 110.762 51.477 111.002 51.075L112.901 51.516C112.541 52.314 111.998 52.968 111.272 53.478C110.546 53.982 109.733 54.234 108.833 54.234ZM106.277 48.726H111.389C111.329 48.294 111.176 47.904 110.93 47.556C110.69 47.202 110.387 46.923 110.021 46.719C109.661 46.509 109.265 46.404 108.833 46.404C108.407 46.404 108.011 46.506 107.645 46.71C107.285 46.914 106.985 47.193 106.745 47.547C106.511 47.895 106.355 48.288 106.277 48.726ZM114.769 54V45H116.641V45.954C116.953 45.582 117.337 45.288 117.793 45.072C118.249 44.856 118.741 44.748 119.269 44.748C119.605 44.748 119.938 44.793 120.268 44.883L119.521 46.773C119.287 46.683 119.053 46.638 118.819 46.638C118.423 46.638 118.06 46.737 117.73 46.935C117.4 47.127 117.136 47.388 116.938 47.718C116.74 48.048 116.641 48.414 116.641 48.816V54H114.769ZM131.693 54.234C130.841 54.234 130.04 54.066 129.29 53.73C128.54 53.388 127.88 52.92 127.31 52.326C126.746 51.726 126.302 51.03 125.978 50.238C125.66 49.446 125.501 48.6 125.501 47.7C125.501 46.8 125.66 45.954 125.978 45.162C126.302 44.37 126.746 43.677 127.31 43.083C127.88 42.483 128.54 42.015 129.29 41.679C130.04 41.337 130.841 41.166 131.693 41.166C132.713 41.166 133.652 41.403 134.51 41.877C135.368 42.351 136.079 42.981 136.643 43.767L134.978 44.658C134.588 44.166 134.105 43.773 133.529 43.479C132.953 43.185 132.341 43.038 131.693 43.038C131.093 43.038 130.532 43.161 130.01 43.407C129.488 43.653 129.029 43.989 128.633 44.415C128.237 44.841 127.928 45.336 127.706 45.9C127.484 46.464 127.373 47.064 127.373 47.7C127.373 48.342 127.484 48.945 127.706 49.509C127.928 50.067 128.237 50.562 128.633 50.994C129.035 51.42 129.497 51.756 130.019 52.002C130.541 52.242 131.099 52.362 131.693 52.362C132.353 52.362 132.968 52.215 133.538 51.921C134.114 51.621 134.594 51.225 134.978 50.733L136.643 51.642C136.079 52.428 135.368 53.058 134.51 53.532C133.652 54 132.713 54.234 131.693 54.234ZM141.88 54.234C141.052 54.234 140.296 54.021 139.612 53.595C138.934 53.169 138.391 52.599 137.983 51.885C137.581 51.165 137.38 50.37 137.38 49.5C137.38 48.84 137.497 48.225 137.731 47.655C137.965 47.079 138.286 46.575 138.694 46.143C139.108 45.705 139.588 45.363 140.134 45.117C140.68 44.871 141.262 44.748 141.88 44.748C142.708 44.748 143.461 44.961 144.139 45.387C144.823 45.813 145.366 46.386 145.768 47.106C146.176 47.826 146.38 48.624 146.38 49.5C146.38 50.154 146.263 50.766 146.029 51.336C145.795 51.906 145.471 52.41 145.057 52.848C144.649 53.28 144.172 53.619 143.626 53.865C143.086 54.111 142.504 54.234 141.88 54.234ZM141.88 52.362C142.378 52.362 142.825 52.23 143.221 51.966C143.617 51.702 143.929 51.354 144.157 50.922C144.391 50.484 144.508 50.01 144.508 49.5C144.508 48.978 144.388 48.498 144.148 48.06C143.914 47.622 143.599 47.274 143.203 47.016C142.807 46.752 142.366 46.62 141.88 46.62C141.388 46.62 140.941 46.752 140.539 47.016C140.143 47.28 139.828 47.631 139.594 48.069C139.366 48.507 139.252 48.984 139.252 49.5C139.252 50.034 139.372 50.517 139.612 50.949C139.852 51.381 140.17 51.726 140.566 51.984C140.968 52.236 141.406 52.362 141.88 52.362ZM147.834 54V45H149.706V45.954C150.018 45.582 150.399 45.288 150.849 45.072C151.305 44.856 151.797 44.748 152.325 44.748C152.967 44.748 153.558 44.904 154.098 45.216C154.638 45.522 155.067 45.93 155.385 46.44C155.703 45.93 156.126 45.522 156.654 45.216C157.188 44.904 157.776 44.748 158.418 44.748C159.084 44.748 159.69 44.91 160.236 45.234C160.782 45.558 161.217 45.993 161.541 46.539C161.865 47.085 162.027 47.691 162.027 48.357V54H160.155V48.834C160.155 48.438 160.059 48.075 159.867 47.745C159.675 47.415 159.417 47.148 159.093 46.944C158.769 46.74 158.409 46.638 158.013 46.638C157.617 46.638 157.257 46.734 156.933 46.926C156.609 47.118 156.351 47.379 156.159 47.709C155.967 48.039 155.871 48.414 155.871 48.834V54H153.999V48.834C153.999 48.414 153.903 48.039 153.711 47.709C153.519 47.379 153.258 47.118 152.928 46.926C152.604 46.734 152.244 46.638 151.848 46.638C151.458 46.638 151.098 46.74 150.768 46.944C150.444 47.148 150.186 47.415 149.994 47.745C149.802 48.075 149.706 48.438 149.706 48.834V54H147.834ZM163.83 54V45H165.702V45.954C166.014 45.582 166.395 45.288 166.845 45.072C167.301 44.856 167.793 44.748 168.321 44.748C168.963 44.748 169.554 44.904 170.094 45.216C170.634 45.522 171.063 45.93 171.381 46.44C171.699 45.93 172.122 45.522 172.65 45.216C173.184 44.904 173.772 44.748 174.414 44.748C175.08 44.748 175.686 44.91 176.232 45.234C176.778 45.558 177.213 45.993 177.537 46.539C177.861 47.085 178.023 47.691 178.023 48.357V54H176.151V48.834C176.151 48.438 176.055 48.075 175.863 47.745C175.671 47.415 175.413 47.148 175.089 46.944C174.765 46.74 174.405 46.638 174.009 46.638C173.613 46.638 173.253 46.734 172.929 46.926C172.605 47.118 172.347 47.379 172.155 47.709C171.963 48.039 171.867 48.414 171.867 48.834V54H169.995V48.834C169.995 48.414 169.899 48.039 169.707 47.709C169.515 47.379 169.254 47.118 168.924 46.926C168.6 46.734 168.24 46.638 167.844 46.638C167.454 46.638 167.094 46.74 166.764 46.944C166.44 47.148 166.182 47.415 165.99 47.745C165.798 48.075 165.702 48.438 165.702 48.834V54H163.83ZM179.466 50.625V45H181.338V50.166C181.338 50.568 181.437 50.934 181.635 51.264C181.833 51.594 182.097 51.858 182.427 52.056C182.757 52.248 183.12 52.344 183.516 52.344C183.918 52.344 184.281 52.248 184.605 52.056C184.935 51.858 185.196 51.594 185.388 51.264C185.586 50.934 185.685 50.568 185.685 50.166V45H187.557L187.566 54H185.694L185.685 53.028C185.379 53.4 184.998 53.694 184.542 53.91C184.086 54.126 183.597 54.234 183.075 54.234C182.409 54.234 181.803 54.072 181.257 53.748C180.711 53.424 180.276 52.989 179.952 52.443C179.628 51.897 179.466 51.291 179.466 50.625ZM197.471 48.357V54H195.599V48.816C195.599 48.414 195.5 48.048 195.302 47.718C195.11 47.388 194.849 47.127 194.519 46.935C194.195 46.737 193.829 46.638 193.421 46.638C193.025 46.638 192.662 46.737 192.332 46.935C192.002 47.127 191.738 47.388 191.54 47.718C191.342 48.048 191.243 48.414 191.243 48.816V54H189.371V45H191.243V45.954C191.555 45.582 191.939 45.288 192.395 45.072C192.851 44.856 193.343 44.748 193.871 44.748C194.537 44.748 195.143 44.91 195.689 45.234C196.235 45.558 196.667 45.993 196.985 46.539C197.309 47.085 197.471 47.691 197.471 48.357ZM199.268 45H201.14V54H199.268V45ZM200.222 43.695C199.934 43.695 199.694 43.602 199.502 43.416C199.31 43.23 199.214 42.996 199.214 42.714C199.214 42.438 199.31 42.207 199.502 42.021C199.694 41.829 199.931 41.733 200.213 41.733C200.489 41.733 200.723 41.829 200.915 42.021C201.107 42.207 201.203 42.438 201.203 42.714C201.203 42.996 201.107 43.23 200.915 43.416C200.729 43.602 200.498 43.695 200.222 43.695ZM209.012 51.444L210.686 52.353C210.278 52.923 209.759 53.379 209.129 53.721C208.505 54.063 207.827 54.234 207.095 54.234C206.267 54.234 205.511 54.021 204.827 53.595C204.149 53.169 203.606 52.599 203.198 51.885C202.796 51.165 202.595 50.37 202.595 49.5C202.595 48.84 202.712 48.225 202.946 47.655C203.18 47.079 203.501 46.575 203.909 46.143C204.323 45.705 204.803 45.363 205.349 45.117C205.895 44.871 206.477 44.748 207.095 44.748C207.827 44.748 208.505 44.919 209.129 45.261C209.759 45.603 210.278 46.062 210.686 46.638L209.012 47.547C208.76 47.247 208.466 47.019 208.13 46.863C207.794 46.701 207.449 46.62 207.095 46.62C206.603 46.62 206.156 46.755 205.754 47.025C205.358 47.289 205.043 47.64 204.809 48.078C204.581 48.51 204.467 48.984 204.467 49.5C204.467 50.01 204.584 50.484 204.818 50.922C205.052 51.354 205.367 51.702 205.763 51.966C206.165 52.23 206.609 52.362 207.095 52.362C207.467 52.362 207.821 52.278 208.157 52.11C208.493 51.942 208.778 51.72 209.012 51.444ZM219.084 45H220.956V54H219.075L219.003 52.695C218.739 53.157 218.382 53.529 217.932 53.811C217.482 54.093 216.951 54.234 216.339 54.234C215.679 54.234 215.058 54.111 214.476 53.865C213.894 53.613 213.381 53.265 212.937 52.821C212.499 52.377 212.157 51.867 211.911 51.291C211.665 50.709 211.542 50.085 211.542 49.419C211.542 48.777 211.662 48.174 211.902 47.61C212.142 47.04 212.475 46.542 212.901 46.116C213.327 45.69 213.819 45.357 214.377 45.117C214.941 44.871 215.544 44.748 216.186 44.748C216.84 44.748 217.416 44.898 217.914 45.198C218.418 45.492 218.835 45.87 219.165 46.332L219.084 45ZM216.294 52.425C216.822 52.425 217.284 52.296 217.68 52.038C218.076 51.774 218.382 51.42 218.598 50.976C218.82 50.532 218.931 50.04 218.931 49.5C218.931 48.954 218.82 48.459 218.598 48.015C218.376 47.571 218.067 47.22 217.671 46.962C217.281 46.698 216.822 46.566 216.294 46.566C215.772 46.566 215.295 46.698 214.863 46.962C214.431 47.226 214.089 47.58 213.837 48.024C213.585 48.468 213.459 48.96 213.459 49.5C213.459 50.046 213.588 50.541 213.846 50.985C214.11 51.423 214.455 51.774 214.881 52.038C215.313 52.296 215.784 52.425 216.294 52.425ZM227.504 46.872H225.614L225.605 54H223.733L223.742 46.872H222.311V45H223.742L223.733 42.174H225.605L225.614 45H227.504V46.872ZM228.992 45H230.864V54H228.992V45ZM229.946 43.695C229.658 43.695 229.418 43.602 229.226 43.416C229.034 43.23 228.938 42.996 228.938 42.714C228.938 42.438 229.034 42.207 229.226 42.021C229.418 41.829 229.655 41.733 229.937 41.733C230.213 41.733 230.447 41.829 230.639 42.021C230.831 42.207 230.927 42.438 230.927 42.714C230.927 42.996 230.831 43.23 230.639 43.416C230.453 43.602 230.222 43.695 229.946 43.695ZM236.819 54.234C235.991 54.234 235.235 54.021 234.551 53.595C233.873 53.169 233.33 52.599 232.922 51.885C232.52 51.165 232.319 50.37 232.319 49.5C232.319 48.84 232.436 48.225 232.67 47.655C232.904 47.079 233.225 46.575 233.633 46.143C234.047 45.705 234.527 45.363 235.073 45.117C235.619 44.871 236.201 44.748 236.819 44.748C237.647 44.748 238.4 44.961 239.078 45.387C239.762 45.813 240.305 46.386 240.707 47.106C241.115 47.826 241.319 48.624 241.319 49.5C241.319 50.154 241.202 50.766 240.968 51.336C240.734 51.906 240.41 52.41 239.996 52.848C239.588 53.28 239.111 53.619 238.565 53.865C238.025 54.111 237.443 54.234 236.819 54.234ZM236.819 52.362C237.317 52.362 237.764 52.23 238.16 51.966C238.556 51.702 238.868 51.354 239.096 50.922C239.33 50.484 239.447 50.01 239.447 49.5C239.447 48.978 239.327 48.498 239.087 48.06C238.853 47.622 238.538 47.274 238.142 47.016C237.746 46.752 237.305 46.62 236.819 46.62C236.327 46.62 235.88 46.752 235.478 47.016C235.082 47.28 234.767 47.631 234.533 48.069C234.305 48.507 234.191 48.984 234.191 49.5C234.191 50.034 234.311 50.517 234.551 50.949C234.791 51.381 235.109 51.726 235.505 51.984C235.907 52.236 236.345 52.362 236.819 52.362ZM250.873 48.357V54H249.001V48.816C249.001 48.414 248.902 48.048 248.704 47.718C248.512 47.388 248.251 47.127 247.921 46.935C247.597 46.737 247.231 46.638 246.823 46.638C246.427 46.638 246.064 46.737 245.734 46.935C245.404 47.127 245.14 47.388 244.942 47.718C244.744 48.048 244.645 48.414 244.645 48.816V54H242.773V45H244.645V45.954C244.957 45.582 245.341 45.288 245.797 45.072C246.253 44.856 246.745 44.748 247.273 44.748C247.939 44.748 248.545 44.91 249.091 45.234C249.637 45.558 250.069 45.993 250.387 46.539C250.711 47.085 250.873 47.691 250.873 48.357Z" fill="white"/>
<rect x="24" y="160" width="320" height="4" rx="2" fill="white" fill-opacity="0.15"/>
<rect x="24" y="92" width="307" height="16" rx="4" fill="white" fill-opacity="0.3"/>
<rect x="24" y="118" width="287" height="16" rx="4" fill="white" fill-opacity="0.3"/>
</svg>
