<svg width="600" height="600" viewBox="0 0 600 600" fill="none" xmlns="http://www.w3.org/2000/svg">
<g clip-path="url(#clip0_235_419)">
<rect width="600" height="600" rx="24" fill="#F7F7F7"/>
<rect width="600" height="600" rx="24" fill="#FAFAFA"/>
<path d="M0 -554H1361V662H0V-554Z" fill="#D9D9D9"/>
<path opacity="0.4" d="M333.333 300.015C333.333 318.379 318.372 333.333 300 333.333C281.628 333.333 266.667 318.379 266.667 300.015C266.667 281.62 281.628 266.666 300 266.666C318.372 266.666 333.333 281.62 333.333 300.015Z" fill="#192252"/>
<path d="M313.333 300.016C313.333 300.858 313.068 301.704 312.538 302.381C312.438 302.514 311.974 303.061 311.61 303.418L311.411 303.612C308.627 306.564 301.7 311.003 298.187 312.425C298.187 312.458 296.098 313.304 295.104 313.333H294.972C293.447 313.333 292.022 312.493 291.293 311.133C290.895 310.384 290.53 308.213 290.497 308.184C290.199 306.237 290 303.256 290 299.983C290 296.552 290.199 293.438 290.563 291.526C290.563 291.494 290.928 289.744 291.16 289.161C291.525 288.322 292.188 287.606 293.016 287.152C293.679 286.831 294.375 286.666 295.104 286.666C295.866 286.702 297.292 287.184 297.855 287.411C301.567 288.837 308.66 293.503 311.378 296.354C311.842 296.808 312.339 297.362 312.472 297.488C313.035 298.201 313.333 299.076 313.333 300.016Z" fill="#192252"/>
</g>
<defs>
<clipPath id="clip0_235_419">
<rect width="600" height="600" rx="24" fill="white"/>
</clipPath>
</defs>
</svg>
